<svg width="17" height="15" viewBox="0 0 17 15" fill="none" xmlns="http://www.w3.org/2000/svg">
<path id="Vector" d="M9.0914 2.2635C8.99489 2.17229 8.91681 2.06189 8.86173 1.93878C8.80664 1.81567 8.77566 1.68232 8.77061 1.54655C8.76555 1.41079 8.78652 1.27533 8.83228 1.14813C8.87805 1.02093 8.94769 0.904543 9.03712 0.805789C9.12655 0.707036 9.23397 0.627905 9.35309 0.573034C9.47221 0.518163 9.60063 0.488657 9.73082 0.486245C9.86101 0.483833 9.99035 0.508564 10.1113 0.558988C10.2322 0.609412 10.3422 0.684514 10.435 0.779893L16.3049 6.56461C16.4016 6.66002 16.4786 6.77502 16.5313 6.90257C16.5839 7.03012 16.6111 7.16754 16.6111 7.30642C16.6111 7.4453 16.5839 7.58272 16.5313 7.71027C16.4786 7.83782 16.4016 7.95282 16.3049 8.04823L10.435 13.8329C10.2453 14.0122 9.99589 14.1068 9.74018 14.0964C9.48448 14.0861 9.24285 13.9716 9.0671 13.7775C8.89135 13.5834 8.79546 13.3252 8.8 13.0582C8.80455 12.7913 8.90915 12.5368 9.0914 12.3493L13.1729 8.32725H1.93663C1.67717 8.32725 1.42833 8.2197 1.24486 8.02826C1.06139 7.83681 0.958313 7.57716 0.958313 7.30642C0.958313 7.03568 1.06139 6.77603 1.24486 6.58458C1.42833 6.39314 1.67717 6.28559 1.93663 6.28559H13.1729L9.0914 2.2635Z" fill="white"/>
</svg>
