<svg width="14" height="15" viewBox="0 0 14 15" fill="none" xmlns="http://www.w3.org/2000/svg">
<path id="Vector" d="M10.5438 6.4796C12.387 5.82974 13.7083 4.10306 13.7083 2.0798L13.6971 1.58546H10.788V0.305603H3.01761V1.58546H0.108519L0.097229 2.0798C0.097229 4.103 1.41861 5.82968 3.26172 6.4796C3.69586 7.54979 4.61644 8.32834 5.75022 8.67146V9.83338C5.69918 10.7436 4.91165 11.5182 3.96754 11.5182V12.5639H3.01678V14.5973H10.7888V12.5639H9.83803V11.5182C8.89392 11.5182 8.10639 10.7436 8.05535 9.83338V8.67146C9.18913 8.32834 10.1097 7.54974 10.5438 6.4796ZM10.7888 2.57136H12.6049C12.6014 2.59616 12.5988 2.63044 12.5948 2.65507C12.4153 3.75053 11.7306 4.66991 10.788 5.21171C10.7903 5.15716 10.7888 2.57136 10.7888 2.57136ZM1.21081 2.65507C1.20677 2.63044 1.20421 2.59616 1.20065 2.57136H3.01678C3.01678 2.57136 3.01524 5.15716 3.01755 5.21171C2.07499 4.66991 1.39033 3.75053 1.21081 2.65507ZM6.90279 5.05654L5.69918 5.842L6.09131 4.48011L4.95533 3.60372L6.40132 3.54755L6.90284 2.2204L7.40437 3.54755L8.85036 3.60372L7.71426 4.48016L8.10639 5.84206L6.90279 5.05654Z" fill="#1195FF"/>
</svg>
