<svg width="32" height="31" viewBox="0 0 32 31" fill="none" xmlns="http://www.w3.org/2000/svg">
<g id="Group 36">
<path id="Vector" d="M23.9423 0.291504C23.933 0.409543 23.9144 0.527581 23.9144 0.64562C23.9126 2.29909 23.9135 3.95349 23.9135 5.60696V5.98153H8.33075V0.291504C10.5639 0.291504 12.797 0.291504 15.0302 0.291504C14.9382 0.415119 14.8472 0.538735 14.7859 0.620525C16.1663 2.00074 17.5401 3.37631 18.9038 4.7398C19.1119 4.53811 19.346 4.31226 19.594 4.07339C19.5123 3.98788 19.4398 3.90795 19.3636 3.83174C18.2666 2.73407 17.1695 1.6364 16.0734 0.537805C15.9981 0.462521 15.9359 0.374224 15.8671 0.291504C18.5592 0.291504 21.2503 0.291504 23.9423 0.291504V0.291504ZM15.3804 4.10778C14.7106 3.43579 14.026 2.74894 13.3628 2.08346C13.151 2.28515 12.9159 2.50914 12.7051 2.7099C13.3906 3.3949 14.0706 4.07432 14.7534 4.75653C14.9596 4.54276 15.1862 4.30761 15.3795 4.10778H15.3804Z" fill="#1195FF"/>
<path id="Vector_2" d="M31.1804 13.5155C30.9844 13.9589 30.702 14.2935 30.1688 14.3037C29.6264 14.3139 29.1972 13.9477 29.1136 13.404C29.0411 12.9309 29.3514 12.4393 29.8205 12.2868C30.3147 12.1251 30.8423 12.3528 31.0764 12.8278C31.1108 12.8975 31.1461 12.9672 31.1804 13.0378V13.5165V13.5155Z" fill="#1195FF"/>
<path id="Vector_3" d="M24.9697 6.00204V2.90515H30.1252V11.1576C28.6872 11.5359 28.0658 12.1791 28.0686 13.2833C28.0713 14.3688 28.6956 15.0102 30.1289 15.3884V29.8728H17.7036C17.7036 26.4246 17.7036 22.9792 17.7036 19.5347C18.5099 19.3153 18.7273 19.0253 18.7273 18.1721C18.7273 17.0057 18.7273 15.8383 18.7273 14.6718V14.3094C18.8712 14.3094 18.9874 14.3094 19.1035 14.3094C20.639 14.3094 22.1736 14.3094 23.7091 14.3094C24.5702 14.3094 24.9529 13.9264 24.9539 13.0723C24.9539 12.8055 24.9539 12.5388 24.9539 12.2404C25.5809 12.2404 26.1763 12.2404 26.7718 12.2404C27.6896 12.2404 28.0667 11.8668 28.0667 10.9578C28.0667 9.70121 28.0676 8.44461 28.0667 7.188C28.0667 6.41657 27.6598 6.00762 26.887 6.0039C26.259 6.00018 25.632 6.0039 24.9687 6.0039L24.9697 6.00204ZM19.2521 20.5608C19.2456 20.6649 19.2382 20.7336 19.2382 20.8034C19.2382 22.5888 19.2372 24.3733 19.2391 26.1588C19.2391 26.2973 19.253 26.4385 19.2781 26.5752C19.4314 27.3931 20.2795 27.9545 21.0942 27.7807C21.8745 27.6143 22.3473 27.0148 22.351 26.1569C22.3575 24.8706 22.3529 23.5842 22.3529 22.2979C22.3529 20.5524 22.3519 18.8078 22.3538 17.0624C22.3538 16.632 22.5396 16.396 22.8656 16.3913C23.1991 16.3867 23.3942 16.6376 23.3961 17.0772C23.397 17.5057 23.3923 17.9351 23.3979 18.3636C23.4016 18.6824 23.3756 19.0086 23.4369 19.3163C23.5967 20.1156 24.3185 20.6091 25.1424 20.5245C25.9004 20.4464 26.4968 19.7931 26.5052 18.9928C26.5172 17.9156 26.5089 16.8384 26.5089 15.7621C26.5089 15.6357 26.5089 15.5093 26.5089 15.3745H25.4703C25.4703 15.5 25.4703 15.6069 25.4703 15.7147C25.4703 16.7315 25.4722 17.7492 25.4685 18.766C25.4685 18.9045 25.4685 19.0523 25.4202 19.1778C25.3282 19.4194 25.1294 19.5254 24.8712 19.4938C24.6111 19.4622 24.4318 19.2456 24.4281 18.9398C24.4197 18.2418 24.4355 17.5438 24.4197 16.8458C24.4021 16.026 23.7388 15.3782 22.9223 15.3578C22.0036 15.3345 21.3143 16.0242 21.3134 16.9843C21.3097 19.9864 21.3125 22.9875 21.3115 25.9896C21.3115 26.0993 21.318 26.2099 21.305 26.3186C21.2725 26.5835 21.0533 26.7722 20.7941 26.7713C20.534 26.7704 20.3194 26.5789 20.2888 26.314C20.2776 26.2155 20.2823 26.1151 20.2823 26.0147C20.2823 24.3092 20.2823 22.6046 20.2823 20.8991C20.2823 20.7922 20.2823 20.6862 20.2823 20.5617H19.2502L19.2521 20.5608ZM25.9887 21.6008C25.9887 22.5154 25.9617 23.3937 25.9961 24.2683C26.0277 25.0769 26.6891 25.6996 27.4657 25.7266C28.3742 25.7582 29.0894 25.1011 29.0932 24.1884C29.1034 21.6454 29.0969 19.1025 29.0969 16.5595C29.0969 16.5121 29.0885 16.4647 29.0829 16.4099H28.0667V16.7919C28.0667 19.1954 28.0667 21.599 28.0667 24.0016C28.0667 24.443 27.8744 24.6958 27.5437 24.6949C27.213 24.6931 27.0328 24.4495 27.0309 23.996C27.0291 23.5768 27.0309 23.1586 27.0309 22.7394C27.0309 22.363 27.0309 21.9865 27.0309 21.5999H25.9896L25.9887 21.6008Z" fill="#1195FF"/>
<path id="Vector_4" d="M14.5527 29.8822H2.15518C2.04371 29.3877 2.05951 29.3719 2.47938 29.1591C3.26154 28.7613 3.68234 28.119 3.66005 27.2379C3.63775 26.3698 3.18908 25.7592 2.40692 25.393C2.31682 25.3511 2.22207 25.3195 2.12174 25.2805V9.9838C2.80915 10.2106 3.49005 10.2171 4.19418 9.97729C4.19418 10.3797 4.19139 10.7469 4.19418 11.114C4.19975 11.812 4.60755 12.2265 5.30982 12.2377C5.85789 12.2461 6.40596 12.2395 6.95495 12.2395C7.06178 12.2395 7.16768 12.2395 7.30702 12.2395C7.30702 12.5518 7.30702 12.8288 7.30702 13.1058C7.30887 13.9256 7.69066 14.3075 8.51834 14.3085C10.0734 14.3103 11.6284 14.3085 13.1834 14.3085C13.2902 14.3085 13.3971 14.3085 13.5336 14.3085C13.5336 14.5204 13.5336 14.697 13.5336 14.8745C13.5336 15.9815 13.5336 17.0884 13.5336 18.1954C13.5336 19.0291 13.751 19.3182 14.5536 19.5394V29.8831L14.5527 29.8822ZM12.4969 20.5617C12.4969 20.717 12.4969 20.835 12.4969 20.954C12.4969 22.639 12.4969 24.3241 12.496 26.0092C12.496 26.1282 12.496 26.2499 12.4709 26.3652C12.4161 26.6235 12.2396 26.7611 11.9823 26.7657C11.725 26.7704 11.5429 26.6356 11.4807 26.381C11.45 26.2573 11.4519 26.1244 11.4519 25.9962C11.45 23.035 11.4519 20.0729 11.4491 17.1117C11.4491 16.923 11.4491 16.7287 11.4064 16.5475C11.2197 15.7621 10.5248 15.2872 9.70551 15.3662C8.95493 15.4387 8.3567 16.1004 8.33998 16.8979C8.32698 17.5559 8.33813 18.214 8.33534 18.872C8.33348 19.2717 8.14027 19.5022 7.81607 19.4994C7.4928 19.4966 7.30795 19.2689 7.30702 18.8618C7.30516 17.805 7.30702 16.7483 7.30702 15.6906C7.30702 15.5855 7.30702 15.4796 7.30702 15.3755H6.2629C6.2629 15.684 6.26197 15.9722 6.2629 16.2594C6.26848 17.226 6.23225 18.1963 6.29263 19.1592C6.35394 20.1416 7.36368 20.7634 8.29911 20.4614C8.96794 20.2448 9.36831 19.6778 9.37853 18.9083C9.38781 18.24 9.37481 17.5717 9.38874 16.9044C9.39525 16.5912 9.6154 16.3895 9.8978 16.3886C10.1755 16.3886 10.3911 16.5995 10.4171 16.9016C10.4245 16.9908 10.4199 17.081 10.4199 17.1712C10.4199 20.163 10.4217 23.1539 10.4171 26.1458C10.4171 26.5613 10.5146 26.934 10.7849 27.2537C11.2132 27.7584 11.8746 27.9378 12.4895 27.7194C13.1119 27.4981 13.5271 26.934 13.529 26.2573C13.5364 24.4124 13.5318 22.5675 13.5308 20.7235C13.5308 20.6751 13.5215 20.6268 13.515 20.5599H12.496L12.4969 20.5617ZM3.66655 16.3988C3.66655 17.2901 3.66655 18.1554 3.66655 19.0207C3.66655 20.7355 3.66098 22.4513 3.66934 24.1661C3.67398 25.05 4.35953 25.7276 5.22157 25.7285C6.08919 25.7294 6.76359 25.0574 6.77846 24.1735C6.78403 23.8343 6.77939 23.4951 6.77939 23.1567C6.77939 22.6418 6.77939 22.126 6.77939 21.6036H5.74921C5.74921 22.3872 5.74921 23.153 5.74921 23.9189C5.74921 24.4412 5.57085 24.7015 5.21786 24.6959C4.87416 24.6903 4.70323 24.4394 4.70323 23.9328C4.70323 21.5395 4.70323 19.1462 4.70323 16.7538V16.3979H3.66655V16.3988Z" fill="#1195FF"/>
<path id="Vector_5" d="M7.30697 11.18H5.2429V7.06628H27.0132V11.1753H24.9547C24.9547 10.8872 24.9557 10.5935 24.9547 10.2989C24.952 9.53952 24.5507 9.12313 23.7992 9.12313C18.6863 9.12034 13.5726 9.12127 8.45977 9.12313C7.70363 9.12313 7.30976 9.53023 7.30697 10.2942C7.30605 10.5814 7.30697 10.8677 7.30697 11.18V11.18Z" fill="#1195FF"/>
<path id="Vector_6" d="M23.895 10.1854V13.2619H18.7274C18.7274 12.9635 18.7283 12.6689 18.7274 12.3752C18.7227 11.6103 18.3066 11.1948 17.5411 11.1939C16.5946 11.192 15.648 11.192 14.7014 11.1939C13.949 11.1948 13.5365 11.6075 13.5338 12.3575C13.5328 12.6466 13.5338 12.9356 13.5338 13.2489H8.35591V10.1854H23.895V10.1854Z" fill="#1195FF"/>
<path id="Vector_7" d="M14.588 12.2562H17.6572V16.3736H14.588V12.2562V12.2562Z" fill="#1195FF"/>
<path id="Vector_8" d="M16.6215 30.9165H15.6331V19.5262H16.6215V30.9165Z" fill="#1195FF"/>
<path id="Vector_9" d="M4.9327 6.04193C4.28895 6.27615 4.15333 6.78827 4.18956 7.40728C4.21185 7.79392 4.1812 8.18429 4.19885 8.57186C4.20814 8.77355 4.14218 8.88323 3.95732 8.95293C3.17331 9.25035 2.44224 9.15927 1.805 8.61369C1.16776 8.06811 0.943884 7.3543 1.14546 6.54011C1.34797 5.72406 1.88675 5.21008 2.70234 5.02141C3.60898 4.81135 4.54905 5.24726 4.93177 6.04193H4.9327Z" fill="#1195FF"/>
<path id="Vector_10" d="M2.12175 4.0716V2.90515H7.29216V6.00018C6.91594 6.00018 6.55181 6.00669 6.18859 5.99368C6.131 5.99182 6.05576 5.91746 6.02417 5.85798C5.14541 4.22217 3.99354 3.68123 2.20814 4.0716C2.18956 4.07531 2.16913 4.0716 2.12175 4.0716V4.0716Z" fill="#1195FF"/>
<path id="Vector_11" d="M0.555636 27.2787C0.563068 26.7025 1.04054 26.2471 1.62204 26.2591C2.18405 26.2712 2.64479 26.749 2.63365 27.3076C2.6225 27.868 2.15153 28.3318 1.59232 28.3327C1.01917 28.3327 0.547276 27.8541 0.555636 27.2778V27.2787Z" fill="#1195FF"/>
<path id="Vector_12" d="M14.5833 17.4406H17.6637V18.4509H14.5833V17.4406Z" fill="#1195FF"/>
</g>
</svg>
