<svg width="37" height="35" viewBox="0 0 37 35" fill="none" xmlns="http://www.w3.org/2000/svg">
<g id="Group">
<path id="Vector" d="M18.8123 28.8077C19.2032 28.8077 19.5201 28.4908 19.5201 28.0999C19.5201 27.709 19.2032 27.3921 18.8123 27.3921C18.4214 27.3921 18.1046 27.709 18.1046 28.0999C18.1046 28.4908 18.4214 28.8077 18.8123 28.8077Z" fill="white"/>
<path id="Vector_2" d="M34.9639 27.8053C33.8605 26.7565 32.4128 26.1048 30.9205 25.9698C33.0081 25.6879 34.6231 23.8951 34.6231 21.7313C34.6231 19.3723 32.704 17.4531 30.345 17.4531C27.986 17.4531 26.0668 19.3723 26.0668 21.7313C26.0668 23.8939 27.6799 25.6855 29.7657 25.9692C28.1873 26.1086 26.6615 26.8061 25.5768 27.8667C25.3494 27.5705 25.1035 27.2893 24.8396 27.0248C23.39 25.5746 21.5086 24.7116 19.4854 24.5543C22.309 24.2204 24.5063 21.8124 24.5063 18.9008C24.5063 15.7613 21.9522 13.2078 18.8132 13.2078C15.6743 13.2078 13.1202 15.7619 13.1202 18.9008C13.1202 21.8149 15.3206 24.2241 18.1473 24.5549C16.8742 24.6546 15.6371 25.0368 14.5344 25.6786C13.5711 26.2387 12.7262 26.9858 12.0491 27.8667C10.9643 26.8061 9.43855 26.1079 7.8601 25.9692C9.94591 25.6855 11.559 23.8939 11.559 21.7313C11.559 19.3723 9.63988 17.4531 7.28088 17.4531C4.92188 17.4531 3.00271 19.3723 3.00271 21.7313C3.00271 23.8951 4.61771 25.6879 6.70538 25.9698C5.21303 26.1042 3.7653 26.7565 2.66199 27.8053C1.3747 29.0282 0.666626 30.6401 0.666626 32.3443V33.7592C0.666626 34.1681 0.998051 34.5001 1.40753 34.5001H36.2171C36.6259 34.5001 36.958 34.1687 36.958 33.7592V32.3443C36.958 30.6401 36.2499 29.0282 34.9639 27.8053V27.8053ZM27.548 21.7313C27.548 20.1888 28.8024 18.9343 30.345 18.9343C31.8875 18.9343 33.1419 20.1888 33.1419 21.7313C33.1419 23.2738 31.8875 24.5283 30.345 24.5283C28.8024 24.5283 27.548 23.2738 27.548 21.7313V21.7313ZM14.6001 18.9015C14.6001 16.579 16.4895 14.6896 18.812 14.6896C21.1344 14.6896 23.0239 16.579 23.0239 18.9015C23.0239 21.2239 21.1344 23.1133 18.812 23.1133C16.4895 23.1133 14.6001 21.2239 14.6001 18.9015ZM4.48266 21.7313C4.48266 20.1888 5.73712 18.9343 7.27964 18.9343C8.82216 18.9343 10.0766 20.1888 10.0766 21.7313C10.0766 23.2738 8.82216 24.5283 7.27964 24.5283C5.73712 24.5283 4.48266 23.2738 4.48266 21.7313V21.7313ZM2.14782 32.3443C2.14782 29.6774 4.49815 27.425 7.27964 27.425C8.79428 27.425 10.2959 28.0922 11.2313 29.154C10.6187 30.3446 10.2947 31.6697 10.2891 33.0183H2.14782V32.3437V32.3443ZM11.7703 33.0189C11.7765 31.7632 12.116 30.5335 12.7534 29.46C14.0184 27.332 16.3402 26.0101 18.812 26.0101C20.6934 26.0101 22.462 26.7423 23.7914 28.0729C24.2077 28.4892 24.5707 28.9557 24.8706 29.46C25.5086 30.5335 25.8481 31.7638 25.8543 33.0189H11.7703V33.0189ZM35.4768 33.0189H27.3355C27.3305 31.6703 27.0059 30.3452 26.3933 29.1546C27.3287 28.0928 28.8303 27.4256 30.345 27.4256C33.1265 27.4256 35.4768 29.6787 35.4768 32.3449V33.0195V33.0189Z" fill="white"/>
<path id="Vector_3" d="M15.5151 7.51163L14.9966 10.536C14.9489 10.8141 15.0635 11.0947 15.2915 11.2601C15.5194 11.4262 15.8217 11.4478 16.0714 11.3165L18.7866 9.8886L21.5024 11.3165C21.6108 11.3735 21.7292 11.4014 21.8469 11.4014C22.0005 11.4014 22.1535 11.3537 22.2824 11.2601C22.5103 11.0941 22.6243 10.8135 22.5766 10.5353L22.0575 7.51101L24.2548 5.36945C24.4568 5.17245 24.5292 4.8782 24.4425 4.60996C24.3552 4.34172 24.1235 4.14658 23.8447 4.1057L20.8105 3.66524L19.4519 0.887468C19.3274 0.633479 19.0697 0.472412 18.7866 0.472412C18.5035 0.472412 18.2458 0.633479 18.1213 0.887468L16.7627 3.66524L13.7285 4.1057C13.4497 4.14596 13.2174 4.34172 13.1307 4.60996C13.0433 4.8782 13.1164 5.17245 13.3184 5.36945L15.5157 7.51101L15.5151 7.51163ZM17.3624 5.07581C17.6046 5.0405 17.814 4.88811 17.9212 4.66819L18.786 2.89956L19.6508 4.66819C19.7586 4.88811 19.9673 5.0405 20.2096 5.07581L22.1454 5.35706L20.7442 6.72241C20.5695 6.89277 20.4896 7.13808 20.5311 7.37844L20.8625 9.30752L19.1304 8.39688C18.9148 8.28351 18.6571 8.28351 18.4409 8.39688L16.7095 9.30752L17.0403 7.37844C17.0818 7.13808 17.0019 6.89277 16.8272 6.72303L15.4259 5.35768L17.3618 5.07643L17.3624 5.07581Z" fill="white"/>
<path id="Vector_4" d="M28.23 12.1196L27.88 14.1614C27.8323 14.4389 27.9462 14.7202 28.1748 14.8856C28.4028 15.0516 28.7051 15.0733 28.9548 14.942L30.7891 13.9781L32.6234 14.942C32.7318 14.999 32.8501 15.0268 32.9678 15.0268C33.1214 15.0268 33.2745 14.9791 33.4033 14.8856C33.6313 14.7196 33.7453 14.4389 33.6982 14.1614L33.3482 12.1196L34.8318 10.6731C35.0338 10.4761 35.1063 10.1818 35.0189 9.9136C34.9316 9.64537 34.6999 9.45023 34.4211 9.40934L32.3706 9.11137L31.4538 7.25353C31.3293 7.00078 31.0716 6.84033 30.7897 6.84033C30.5078 6.84033 30.2501 7.00016 30.1256 7.25291L29.2081 9.11137L27.1576 9.40934C26.8789 9.44961 26.6472 9.64537 26.5598 9.9136C26.4725 10.1818 26.5456 10.4761 26.7469 10.6731L28.2306 12.1196H28.23ZM29.8059 10.5219C30.0469 10.4866 30.2557 10.3355 30.3635 10.1168L30.7885 9.25509L31.2134 10.1162C31.3212 10.3349 31.53 10.4866 31.771 10.5213L32.7219 10.6595L32.0336 11.3304C31.8589 11.5007 31.7796 11.7454 31.8205 11.9858L31.9828 12.9324L31.1323 12.4857C30.9167 12.3723 30.659 12.3723 30.4434 12.4857L29.5922 12.933L29.7545 11.9864C29.796 11.746 29.7161 11.5013 29.5414 11.331L28.8532 10.6601L29.8041 10.5219H29.8059Z" fill="white"/>
<path id="Vector_5" d="M4.1748 12.1196L3.82479 14.1614C3.77709 14.4389 3.89107 14.7202 4.11967 14.8856C4.24852 14.9791 4.40153 15.0268 4.55516 15.0268C4.67287 15.0268 4.79119 14.999 4.8996 14.942L6.7339 13.9781L8.5682 14.942C8.81785 15.0733 9.12016 15.051 9.34813 14.8856C9.5761 14.7196 9.69008 14.4389 9.643 14.1614L9.29299 12.1196L10.7767 10.6731C10.9786 10.4761 11.0511 10.1818 10.9637 9.9136C10.8764 9.64536 10.6447 9.45023 10.3659 9.40934L8.31545 9.11137L7.39861 7.25353C7.27409 7.00078 7.01638 6.84033 6.73452 6.84033C6.45265 6.84033 6.19494 7.00016 6.07043 7.25291L5.15297 9.11137L3.10247 9.40934C2.8237 9.44961 2.59201 9.64536 2.50466 9.9136C2.41732 10.1818 2.49042 10.4761 2.69175 10.6731L4.17542 12.1196H4.1748ZM5.75077 10.5219C5.99175 10.4866 6.20052 10.3355 6.30831 10.1168L6.73328 9.25509L7.15824 10.1162C7.26604 10.3349 7.4748 10.4866 7.71578 10.5213L8.66669 10.6595L7.97844 11.3304C7.80375 11.5007 7.72445 11.7454 7.76534 11.9858L7.92765 12.9324L7.07709 12.4857C6.86151 12.3723 6.6038 12.3723 6.38822 12.4857L5.53705 12.933L5.69935 11.9864C5.74086 11.746 5.66095 11.5013 5.48625 11.331L4.798 10.6601L5.74891 10.5219H5.75077Z" fill="white"/>
<path id="Vector_6" d="M21.9311 28.2903C21.5892 28.0654 21.1301 28.1608 20.9053 28.5028C20.6804 28.8447 20.7758 29.3038 21.1177 29.5286C21.767 29.9555 22.2861 30.5495 22.6181 31.2477C22.7451 31.5141 23.0103 31.6702 23.2872 31.6702C23.3937 31.6702 23.5022 31.6473 23.605 31.5983C23.9742 31.4224 24.1315 30.9807 23.9556 30.6115C23.5071 29.6686 22.8071 28.8664 21.9311 28.2909V28.2903Z" fill="white"/>
</g>
</svg>
