<svg width="40" height="35" viewBox="0 0 40 35" fill="none" xmlns="http://www.w3.org/2000/svg">
<g id="Group">
<path id="Vector" d="M26.062 12.9976C24.3547 12.3391 22.43 12.6612 21.0294 13.8388L19.6585 14.9916L18.2876 13.8339C16.8876 12.6612 14.9573 12.3391 13.255 12.9926C11.5477 13.6505 10.3354 15.18 10.0833 16.9913V17.0111C9.65773 20.876 9.70666 24.6616 10.2314 28.2545C10.2314 28.2595 10.2314 28.2645 10.2363 28.2694V28.2849C10.4736 29.5957 11.6221 30.5311 12.9285 30.5311C13.0376 30.5311 13.1416 30.5255 13.25 30.5113C13.5319 30.4766 13.7946 30.4029 14.0417 30.2938L14.1359 34.0348C14.1464 34.4901 14.5224 34.8562 14.9771 34.8562H14.997C15.4622 34.8463 15.8283 34.4598 15.8184 33.9952L15.6647 27.8692C15.6647 27.7949 15.6647 27.7206 15.6598 27.6419C15.6598 27.627 15.6548 27.6171 15.6548 27.6072L15.4324 18.8187C15.4225 18.3535 15.0366 17.9874 14.5714 17.9973C14.1062 18.0072 13.74 18.3932 13.75 18.8584L13.9779 27.8599C13.9482 28.3648 13.5623 28.786 13.0524 28.8449C12.503 28.9087 11.9981 28.5376 11.8946 27.9937C11.3941 24.5544 11.3452 20.9268 11.7559 17.2156C11.9238 16.0181 12.7309 14.9991 13.8639 14.563C14.997 14.1275 16.2793 14.3406 17.2091 15.1224L19.1189 16.7355C19.1239 16.741 19.1338 16.746 19.1387 16.7509C19.1487 16.7609 19.1586 16.7658 19.1679 16.7751C19.1827 16.785 19.1976 16.7949 19.2125 16.8048C19.2224 16.8098 19.2273 16.8148 19.2372 16.8197C19.262 16.8346 19.2868 16.8445 19.311 16.8594C19.3147 16.8594 19.3182 16.861 19.3215 16.8643C19.3456 16.8742 19.3661 16.8841 19.3903 16.894C19.3952 16.894 19.4051 16.899 19.4101 16.899C19.4299 16.904 19.4491 16.9089 19.4695 16.9139C19.4795 16.9139 19.4838 16.9188 19.4937 16.9188C19.5135 16.9244 19.5333 16.9244 19.5587 16.9294C19.5637 16.9294 19.573 16.9294 19.5786 16.9343C19.6083 16.9393 19.6325 16.9393 19.6622 16.9393C19.6919 16.9393 19.7167 16.9393 19.7464 16.9343C19.7514 16.9343 19.7613 16.9343 19.7663 16.9294C19.7861 16.9244 19.8059 16.9244 19.8307 16.9188C19.8406 16.9188 19.8456 16.9139 19.8555 16.9139C19.8753 16.9089 19.8951 16.904 19.9149 16.899C19.9199 16.899 19.9298 16.894 19.9348 16.894C19.9595 16.8841 19.9787 16.8792 20.0041 16.8643C20.0075 16.8643 20.0108 16.8627 20.0141 16.8594C20.0388 16.8494 20.0636 16.8346 20.0878 16.8197C20.0983 16.8148 20.1076 16.8098 20.1132 16.8048C20.1274 16.7949 20.1423 16.785 20.1572 16.7751C20.1671 16.7701 20.177 16.7602 20.1869 16.7509C20.1918 16.746 20.2018 16.741 20.2067 16.7355L22.1172 15.1224C23.047 14.3406 24.3293 14.1275 25.4623 14.563C26.5953 14.9985 27.4019 16.0181 27.5698 17.2205C28.0703 20.8178 28.0201 24.4398 27.4316 27.9832C27.3325 28.5277 26.8233 28.9037 26.2689 28.8393C25.7194 28.7749 25.3087 28.2898 25.3384 27.736C25.3434 27.6766 25.3384 27.6121 25.3285 27.5576L25.5466 18.9718C25.5565 18.5065 25.1904 18.1212 24.7251 18.1107C24.2599 18.1008 23.8734 18.4669 23.8635 18.9321L23.4825 34.0008C23.4726 34.466 23.8393 34.8519 24.3039 34.8612H24.3237C24.779 34.8612 25.1551 34.5001 25.165 34.0398L25.2591 30.2889C25.5119 30.4029 25.7789 30.4815 26.0663 30.5162C26.1747 30.5311 26.2844 30.5361 26.3878 30.5361C27.6893 30.5361 28.8428 29.6007 29.0794 28.2898V28.2799C29.7032 24.5631 29.7528 20.7682 29.233 16.9969C28.9809 15.1855 27.7686 13.6567 26.0613 12.9988L26.062 12.9976Z" fill="white"/>
<path id="Vector_2" d="M19.6678 12.1556C22.1326 12.1556 24.1366 10.1516 24.1366 7.68738C24.1366 5.22312 22.1326 3.21851 19.6678 3.21851C17.2029 3.21851 15.1995 5.2225 15.1995 7.68738C15.1945 10.1467 17.2041 12.1556 19.6678 12.1556ZM19.6678 4.89604C21.2071 4.89604 22.4541 6.14799 22.4541 7.68242C22.4541 9.21685 21.2022 10.4682 19.6678 10.4682C18.1333 10.4682 16.882 9.21623 16.882 7.68242C16.882 6.14861 18.129 4.89604 19.6678 4.89604V4.89604Z" fill="white"/>
<path id="Vector_3" d="M10.6024 14.2593C10.9041 13.9025 10.8546 13.3735 10.504 13.0712L8.58855 11.4581C7.18854 10.2854 5.25764 9.96392 3.55596 10.6168C1.84869 11.2747 0.636386 12.8042 0.383642 14.6155C-0.136095 18.3863 -0.0865396 22.1818 0.532313 25.898V25.9079C0.769571 27.2199 1.91807 28.1553 3.22454 28.1553C3.33357 28.1553 3.43764 28.1498 3.54605 28.1349C3.82852 28.1008 4.09056 28.0259 4.33773 27.9175L4.43189 31.6386C4.4418 32.0939 4.8172 32.46 5.27251 32.46H5.29234C5.75756 32.4501 6.12367 32.0642 6.11376 31.599L5.96013 25.4873C5.96013 25.4136 5.96013 25.3442 5.95517 25.2698C5.95517 25.2599 5.95022 25.25 5.95022 25.2358L5.73216 16.4368C5.72225 15.9716 5.33694 15.6055 4.87172 15.6154C4.40649 15.6253 4.04038 16.0118 4.0503 16.4764L4.27764 25.478C4.24791 25.9828 3.86198 26.4035 3.35215 26.4679C2.80268 26.5323 2.29285 26.1563 2.1894 25.6118C1.60028 22.0684 1.55073 18.4464 2.05064 14.8491C2.21852 13.6467 3.02569 12.627 4.1587 12.1915C5.29172 11.7561 6.57402 11.9685 7.50385 12.7503L9.4143 14.3634C9.57784 14.4873 9.7705 14.5567 9.95882 14.5567C10.1961 14.5567 10.434 14.4526 10.6018 14.26L10.6024 14.2593Z" fill="white"/>
<path id="Vector_4" d="M9.96933 9.77062C12.4336 9.77062 14.4376 7.76601 14.4376 5.30175C14.4376 2.83749 12.4336 0.833496 9.96933 0.833496C7.50507 0.833496 5.50046 2.83749 5.50046 5.30175C5.50046 7.76601 7.50507 9.77062 9.96933 9.77062V9.77062ZM9.96933 2.51598C11.5081 2.51598 12.7551 3.76793 12.7551 5.30175C12.7551 6.83556 11.5031 8.08813 9.96933 8.08813C8.43552 8.08813 7.18295 6.83618 7.18295 5.30175C7.18295 3.76731 8.4349 2.51598 9.96933 2.51598V2.51598Z" fill="white"/>
<path id="Vector_5" d="M29.3625 9.77062C31.8274 9.77062 33.8308 7.76601 33.8308 5.30175C33.8308 2.83749 31.8274 0.833496 29.3625 0.833496C26.8977 0.833496 24.8937 2.83749 24.8937 5.30175C24.8937 7.76601 26.8977 9.77062 29.3625 9.77062V9.77062ZM29.3625 2.51598C30.9019 2.51598 32.1489 3.76793 32.1489 5.30175C32.1489 6.83556 30.8964 8.08813 29.3625 8.08813C27.8287 8.08813 26.5762 6.83618 26.5762 5.30175C26.5762 3.76731 27.8232 2.51598 29.3625 2.51598V2.51598Z" fill="white"/>
<path id="Vector_6" d="M38.9278 14.6155C38.6756 12.8041 37.4633 11.2747 35.7561 10.6168C34.0488 9.9589 32.1235 10.2804 30.7235 11.458L28.8087 13.0711C28.4519 13.3728 28.4079 13.9025 28.7096 14.2593C28.8781 14.4569 29.1153 14.556 29.3532 14.556C29.5465 14.556 29.7391 14.4916 29.8928 14.3578L31.8026 12.7447C32.7324 11.9629 34.0147 11.7504 35.1477 12.1859C36.2808 12.6208 37.0873 13.6404 37.2558 14.8428C37.7557 18.4407 37.7062 22.0628 37.1177 25.6061C37.0185 26.15 36.5093 26.5267 35.9543 26.4616C35.4054 26.3978 34.9947 25.9122 35.0245 25.3583C35.0294 25.2945 35.0245 25.2301 35.0146 25.1706L35.232 16.4764C35.2425 16.0111 34.8764 15.6252 34.4112 15.6153C33.9453 15.601 33.56 15.9721 33.5501 16.4367L33.1691 31.5989C33.1586 32.0641 33.5247 32.4501 33.9899 32.46H34.0104C34.4657 32.46 34.8417 32.0988 34.851 31.6386L34.9452 27.9075C35.1973 28.0208 35.4692 28.1008 35.7567 28.1348C35.8657 28.1497 35.9741 28.1553 36.0782 28.1553C37.3797 28.1553 38.5332 27.2199 38.7704 25.9078V25.8979C39.4035 22.1817 39.4531 18.3862 38.9284 14.6155H38.9278Z" fill="white"/>
</g>
</svg>
