<svg width="38" height="35" viewBox="0 0 38 35" fill="none" xmlns="http://www.w3.org/2000/svg">
<g id="Group">
<path id="Vector" d="M37.6681 10.5258C37.6427 10.3164 37.5368 10.13 37.3702 10.0005C37.2035 9.87102 36.9972 9.81465 36.7872 9.84129C35.4293 10.016 34.3786 10.703 33.7362 11.2488L33.2908 11.6267L33.2183 11.0468C33.1743 10.6956 33.1167 10.3412 33.0467 9.99306L32.999 9.7558L33.2158 9.64801C34.207 9.15551 34.969 8.34955 35.3624 7.37942C35.936 5.99672 35.7514 4.28877 34.881 2.92031C34.3743 2.12303 33.8298 1.38955 33.2611 0.74032C32.9755 0.414467 32.478 0.381015 32.1516 0.666601C31.2099 1.48991 30.5743 2.69048 30.3141 4.137L30.3129 4.14567C30.0917 5.45961 30.2231 6.70294 30.6926 7.74121C33.2121 13.3012 31.1907 19.9749 25.9907 23.2651C25.7231 23.4342 25.5038 23.669 25.3557 23.9447L25.2665 24.1107H20.0993V18.7738L24.4389 21.0268C24.7083 21.1669 25.0162 21.1433 25.2628 20.9643C25.5094 20.7852 25.627 20.4997 25.5769 20.1998L24.6303 14.5023L28.7443 10.4496C28.9605 10.2365 29.0336 9.93607 28.9395 9.64615C28.8453 9.35622 28.6099 9.15675 28.3095 9.11152L22.6176 8.25415L20.0293 2.53189C19.8986 2.24321 19.631 2.07099 19.3126 2.07099C18.9948 2.07099 18.7265 2.24321 18.5958 2.53189L16.0076 8.25415L10.3157 9.11152C10.0152 9.15675 9.77982 9.35684 9.68566 9.64677C9.59149 9.93669 9.66459 10.2365 9.88079 10.4496L13.9948 14.5023L13.0483 20.1998C12.9987 20.4997 13.1158 20.7852 13.3623 20.9643C13.6089 21.1433 13.9168 21.1669 14.1863 21.0268L18.5258 18.7738V24.1107H13.3419L13.2508 23.9533C13.008 23.5346 12.6022 23.2545 12.2448 23.0074C9.95017 21.4246 8.23728 19.0507 7.42203 16.3237C6.57704 13.4957 6.7666 10.4447 7.95602 7.73253C8.4256 6.66081 8.55198 5.45404 8.33206 4.14567L8.3302 4.1339C8.07125 2.69048 7.43566 1.49053 6.49341 0.666601C6.16756 0.381634 5.66948 0.414467 5.3839 0.74032C4.8152 1.38955 4.27005 2.12303 3.76454 2.9197C2.89354 4.28939 2.70892 5.99733 3.28133 7.37694C3.67533 8.34955 4.43731 9.15551 5.4285 9.64801L5.64532 9.7558L5.59762 9.99306C5.527 10.3425 5.46938 10.698 5.42602 11.0493L5.35415 11.6273L4.90936 11.2513C3.99437 10.4787 2.90407 9.97758 1.83792 9.84067C1.62915 9.81403 1.42224 9.8704 1.25498 9.99988C1.08833 10.1294 0.982396 10.3158 0.956377 10.5252C0.835576 11.5121 0.795309 12.3979 0.833098 13.233C0.878321 14.8307 1.7103 16.3472 3.00318 17.1959L3.00876 17.1996C3.86737 17.7888 4.93291 18.0372 6.04366 17.8947L6.28339 17.8637L6.3757 18.0874C6.50889 18.4107 6.65633 18.7347 6.81368 19.05L7.07759 19.5772L6.49279 19.5041C5.29097 19.3542 4.19694 19.5178 3.24107 19.9911C3.05212 20.0846 2.90654 20.2531 2.8415 20.4532C2.77645 20.6533 2.79503 20.8751 2.89353 21.0615C3.27018 21.7783 3.71808 22.6066 4.27562 23.3642L4.2812 23.3716C5.21044 24.7159 6.71022 25.5188 8.29364 25.5188C9.31147 25.5188 10.2859 25.1403 11.1117 24.4248L11.2982 24.2637L11.5001 24.4049C11.6705 24.5245 11.7634 24.597 11.8217 24.6546L11.9103 24.7426L11.9146 24.8671C11.9146 24.8758 11.9146 24.8857 11.9146 24.8968V32.9267H10.4972C10.0635 32.9267 9.71043 33.2798 9.71043 33.7134C9.71043 34.1471 10.0635 34.5002 10.4972 34.5002H28.1298C28.5635 34.5002 28.9166 34.1471 28.9166 33.7134C28.9166 33.2798 28.5635 32.9267 28.1298 32.9267H26.7124V24.6707L26.8586 24.5778C26.9509 24.5189 27.0401 24.4595 27.1467 24.3882L27.348 24.2532L27.5301 24.413C28.3584 25.139 29.3614 25.5237 30.43 25.525H30.4653C32.0648 25.525 33.5578 24.6472 34.5626 23.117C34.9938 22.4604 35.4398 21.7814 35.7867 21.0275C35.9658 20.6384 35.8053 20.1843 35.4219 19.9942C34.4709 19.5227 33.4073 19.3666 32.1708 19.5165L31.5878 19.5871L31.8511 19.0618C32.0078 18.7484 32.1559 18.4213 32.2916 18.0892L32.3826 17.8656L32.6224 17.8953C32.8163 17.9195 33.0114 17.9319 33.2028 17.9319C34.08 17.9319 34.9306 17.6717 35.6622 17.1798C36.9365 16.3181 37.753 14.8053 37.792 13.2318V13.225C37.8311 12.3967 37.7908 11.5133 37.6694 10.524L37.6681 10.5258ZM5.38266 16.3633C4.83564 16.3546 4.32022 16.1942 3.89215 15.8981L3.87481 15.8863C3.01124 15.3232 2.43449 14.2638 2.40661 13.1872V13.1723C2.38927 12.813 2.38927 12.4351 2.40661 12.0479L2.42705 11.5684L2.85884 11.7772C3.37302 12.0256 3.85684 12.3763 4.2589 12.7907C4.89759 13.4542 5.31265 14.1827 5.49354 14.9558L5.49788 14.9775C5.55302 15.3176 5.61992 15.6527 5.69612 15.9743L5.78966 16.3689L5.3839 16.3627L5.38266 16.3633ZM6.3918 7.38562C6.32924 7.53801 6.26481 7.69598 6.2041 7.86015L6.06285 8.24052L5.72895 8.00945C5.27858 7.69784 4.93662 7.27535 4.73962 6.78719L4.7359 6.77851C4.35491 5.86414 4.4912 4.70941 5.09211 3.76406C5.29592 3.44317 5.50903 3.1297 5.72585 2.83297L6.02073 2.42906L6.25862 2.8689C6.50208 3.31927 6.67801 3.83778 6.78147 4.40958C7.02183 5.84618 6.7158 6.59391 6.39242 7.385L6.3918 7.38562ZM9.71105 23.5135C9.28918 23.783 8.76942 23.9447 8.21745 23.9447C7.32352 23.9447 6.34411 23.5209 5.55178 22.4455C5.35354 22.1766 5.15592 21.8768 4.94777 21.528L4.69502 21.1049L5.18503 21.0529C5.70169 20.9977 6.24808 21.0318 6.80934 21.1532C7.74973 21.3744 8.50181 21.7603 9.05068 22.3011L9.0612 22.3123C9.28918 22.5607 9.52335 22.798 9.75751 23.0185L10.0518 23.296L9.71105 23.5141V23.5135ZM14.8572 18.9063L15.613 14.358C15.6551 14.1059 15.5708 13.8482 15.3893 13.6691L12.1048 10.4335L16.6649 9.7465C16.93 9.70686 17.1536 9.53712 17.2645 9.29304L19.3126 4.76516L21.3606 9.29304C21.4709 9.53712 21.6951 9.70686 21.9603 9.7465L26.5197 10.4335L23.2352 13.6691C23.0531 13.8488 22.9694 14.1065 23.0116 14.3586L23.7673 18.9069L23.2073 18.6164C20.1173 17.0119 19.7413 16.8168 19.6948 16.7926C19.4278 16.6644 19.1843 16.6607 18.9502 16.7821L14.8578 18.9069L14.8572 18.9063ZM25.1377 32.9279H13.4862V25.6848H25.1377V32.9279ZM33.4729 21.0578L33.9803 21.1074L33.7096 21.5392C33.5609 21.7764 33.4029 22.0174 33.2499 22.2503C33.1985 22.329 33.1471 22.4071 33.0963 22.4845L33.0864 22.4994C32.3901 23.4447 31.4038 23.9539 30.4306 23.9539C29.9121 23.9539 29.3967 23.8096 28.9308 23.5092L28.5895 23.2892L28.8868 23.0129C29.139 22.7788 29.3837 22.5347 29.6129 22.2875L29.6333 22.2677C30.6146 21.3868 32.0853 20.9234 33.4729 21.0584V21.0578ZM32.5815 8.24052L32.4402 7.86015C32.3863 7.71581 32.3269 7.57456 32.2637 7.42588C31.9595 6.70789 31.6151 5.8945 31.8623 4.41453V4.41019C31.9663 3.83778 32.1423 3.31989 32.3857 2.8689L32.6236 2.42906L32.9179 2.83297C33.1347 3.13032 33.3484 3.44441 33.5522 3.7653C34.1525 4.70941 34.2894 5.86414 33.9078 6.77851L33.9047 6.78719C33.7077 7.27597 33.3651 7.69846 32.9148 8.01007L32.5809 8.24052H32.5815ZM36.2191 13.1649V13.1847C36.1956 14.2459 35.6319 15.3027 34.7819 15.877C34.321 16.1867 33.8143 16.3503 33.2765 16.3627L32.8702 16.372L32.9619 15.9755C32.9996 15.8113 33.03 15.6515 33.0616 15.4818C33.214 14.6696 33.3713 13.8296 34.3854 12.7925C34.7906 12.375 35.2682 12.0244 35.7657 11.7803L36.1993 11.5672L36.2198 12.0498C36.2365 12.4339 36.2359 12.8093 36.2191 13.1649V13.1649Z" fill="white"/>
<path id="Vector_2" d="M17.1078 30.0926H21.5161C21.9498 30.0926 22.3029 29.7394 22.3029 29.3058C22.3029 28.8722 21.9498 28.519 21.5161 28.519H17.1078C16.6742 28.519 16.321 28.8722 16.321 29.3058C16.321 29.7394 16.6742 30.0926 17.1078 30.0926Z" fill="white"/>
</g>
</svg>
