<svg width="32" height="31" viewBox="0 0 32 31" fill="none" xmlns="http://www.w3.org/2000/svg">
<g id="Group 38">
<path id="Vector" d="M5.18277 30.9165C4.65591 30.7122 4.4775 30.3183 4.47935 29.7676C4.49143 26.7192 4.48772 23.6709 4.48028 20.6226C4.48028 20.3774 4.53046 20.2455 4.77485 20.1257C5.07127 19.9798 5.3426 19.756 5.57862 19.5201C9.00187 16.1095 12.4177 12.6915 15.8344 9.27351C15.9181 9.18899 15.984 9.08682 16.0398 9.01624C19.3376 12.3135 22.5973 15.5727 25.8672 18.8411C25.1136 19.4356 24.9036 20.4006 24.439 21.2142C24.3405 21.387 24.2002 21.5532 24.0422 21.673C23.6854 21.9433 23.3044 22.1811 22.9355 22.4356C21.3698 23.5167 21.3614 25.6864 22.9188 26.7796C22.943 26.7963 22.9671 26.8158 22.9931 26.8288C23.9939 27.3285 24.6313 28.1254 25.0105 29.1731C25.2976 29.9673 25.8533 30.5366 26.6747 30.8162C26.7156 30.8301 26.7435 30.8812 26.7769 30.9156H19.5987C19.594 30.8162 19.5848 30.7177 19.5848 30.6184C19.5848 28.3056 19.5922 25.9938 19.582 23.6811C19.5717 21.3498 17.5758 19.6817 15.3029 20.0894C13.6192 20.3913 12.4047 21.8811 12.3982 23.682C12.3889 25.9948 12.3954 28.3066 12.3972 30.6193C12.3972 30.7177 12.413 30.8171 12.4214 30.9156H5.18277V30.9165Z" fill="#1195FF"/>
<path id="Vector_2" d="M31.4435 15.6665C31.3357 15.8067 31.2418 15.96 31.1192 16.0844C30.3767 16.8358 29.6278 17.5807 28.8797 18.3275C28.5192 18.6869 28.338 18.6879 27.9803 18.3303C24.1101 14.4618 20.2408 10.5933 16.3724 6.72301C16.2888 6.63942 16.2293 6.52982 16.1104 6.36635C15.984 6.53446 15.9227 6.64034 15.8391 6.72394C11.9995 10.5664 8.15721 14.4061 4.31582 18.2467C3.88652 18.6758 3.73785 18.6749 3.30855 18.2467C2.56145 17.4999 1.81343 16.7532 1.06727 16.0055C0.737394 15.6748 0.736465 15.4798 1.06634 15.15C2.07361 14.1414 3.08182 13.1336 4.09002 12.1268C4.15228 12.0646 4.21918 12.007 4.28423 11.9466C4.48401 12.1305 4.6587 12.3218 4.86313 12.4751C6.20585 13.4801 8.10053 13.0454 8.87364 11.5519C9.17564 10.9686 9.43489 10.3639 9.73689 9.78063C9.82795 9.60509 9.97477 9.44162 10.1346 9.32273C10.5583 9.00786 11.0043 8.72458 11.4374 8.42272C12.8126 7.46326 13.0607 5.7394 12.0153 4.42236C11.9912 4.39171 11.9679 4.36013 11.9289 4.30812C11.9949 4.2366 12.0572 4.16322 12.125 4.09449C13.3014 2.91677 14.4787 1.73998 15.656 0.563181C16.0175 0.201876 16.194 0.200947 16.5546 0.560394C21.419 5.42175 26.2826 10.2831 31.1443 15.1473C31.2604 15.2643 31.345 15.4129 31.4444 15.5466V15.6665H31.4435Z" fill="#1195FF"/>
<path id="Vector_3" d="M31.4435 24.8162C31.2344 25.0326 31.0309 25.2546 30.8135 25.4626C30.714 25.5574 30.5923 25.6363 30.4697 25.6985C29.5581 26.162 28.9578 26.8837 28.627 27.8487C28.5276 28.1385 28.365 28.406 28.2302 28.6828C28.0806 28.9893 27.8297 29.1555 27.4934 29.1546C27.157 29.1546 26.908 28.9856 26.7593 28.6781C26.4573 28.0512 26.1664 27.4187 25.8477 26.8001C25.7576 26.6246 25.6108 26.4592 25.4509 26.3422C24.978 25.9948 24.4836 25.6762 24.0004 25.3428C23.402 24.9304 23.4048 24.2998 24.0032 23.8827C24.15 23.7806 24.2894 23.6626 24.4483 23.5827C25.4221 23.0951 26.0494 22.3196 26.4034 21.2997C26.4945 21.0387 26.6366 20.7945 26.7611 20.5455C26.9117 20.2437 27.1523 20.0756 27.4971 20.0756C27.8418 20.0756 28.0834 20.2446 28.2312 20.5483C28.5406 21.1827 28.837 21.8236 29.1557 22.4533C29.2319 22.6047 29.3555 22.7496 29.4921 22.849C29.9502 23.1833 30.439 23.4768 30.8869 23.8233C31.1052 23.9923 31.2595 24.2431 31.4426 24.4567V24.8152L31.4435 24.8162Z" fill="#1195FF"/>
<path id="Vector_4" d="M14.1563 30.9165C14.1693 30.7892 14.1925 30.662 14.1925 30.5347C14.1944 28.2638 14.1916 25.9929 14.1953 23.7229C14.1972 22.8238 14.6804 22.1346 15.4581 21.8987C16.5184 21.5764 17.6418 22.2637 17.7459 23.369C17.8174 24.1269 17.7598 24.8978 17.7598 25.7124C17.5052 25.7124 17.2422 25.7105 16.9783 25.7124C16.3929 25.717 15.9971 26.0765 15.9943 26.604C15.9915 27.1335 16.3883 27.5022 16.9681 27.5078C17.2264 27.5106 17.4847 27.5078 17.8053 27.5078V30.9165H14.1563V30.9165Z" fill="#1195FF"/>
<path id="Vector_5" d="M10.8641 6.16125C10.8501 6.48541 10.7089 6.74361 10.4329 6.93123C9.84006 7.33433 9.24536 7.73465 8.66181 8.15075C8.53172 8.24363 8.41743 8.38295 8.34588 8.52506C8.00299 9.20959 7.6694 9.89969 7.34696 10.5944C7.17134 10.9725 6.90466 11.2167 6.48093 11.2186C6.05721 11.2214 5.78587 10.9771 5.61025 10.6009C5.28131 9.89876 4.94586 9.19844 4.60019 8.5037C4.53329 8.36902 4.42364 8.23713 4.30098 8.15075C3.7323 7.74765 3.15154 7.3622 2.57728 6.96653C1.91846 6.51234 1.92218 5.81295 2.58471 5.35691C3.093 5.00675 3.59663 4.64823 4.11514 4.31386C4.38461 4.14018 4.57324 3.92748 4.70519 3.63305C4.99325 2.98846 5.31197 2.3578 5.61304 1.71879C5.78959 1.34541 6.05721 1.10671 6.48837 1.11228C6.90466 1.11785 7.16484 1.34819 7.33674 1.71321C7.66755 2.41539 8.00114 3.11571 8.34866 3.80952C8.42021 3.95256 8.53822 4.08909 8.66832 4.18105C9.24443 4.59158 9.83077 4.98539 10.4162 5.38292C10.6903 5.56868 10.8445 5.81945 10.8641 6.1594V6.16125Z" fill="#1195FF"/>
<path id="Vector_6" d="M21.2406 2.6149C21.3484 2.6084 21.4562 2.59632 21.564 2.59632C22.6401 2.5954 23.7161 2.59354 24.7921 2.59632C25.5299 2.59818 25.8709 2.94184 25.8719 3.67559C25.8728 4.86075 25.8719 6.04497 25.8719 7.15211C24.374 5.65302 22.8417 4.12049 21.3085 2.58704C21.2852 2.59632 21.2629 2.60561 21.2397 2.6149H21.2406Z" fill="#1195FF"/>
</g>
</svg>
