<svg width="32" height="31" viewBox="0 0 32 31" fill="none" xmlns="http://www.w3.org/2000/svg">
<g id="Group 37">
<path id="Vector" d="M16.7707 0.291504C16.7764 0.390861 16.7858 0.489289 16.7858 0.588646C16.7858 4.172 16.7858 7.75535 16.7858 11.3387C16.7858 11.4464 16.7858 11.5541 16.7858 11.6813H14.7143C14.7048 11.608 14.6869 11.5328 14.6869 11.4576C14.6859 7.78506 14.6859 4.11164 14.6869 0.439146C14.6869 0.389932 14.6963 0.340718 14.702 0.291504C15.3919 0.291504 16.0808 0.291504 16.7707 0.291504V0.291504Z" fill="#1195FF"/>
<path id="Vector_2" d="M18.9018 13.9879C21.4307 14.3844 23.8151 15.04 25.8441 16.5861C26.311 16.9417 26.7391 17.3744 27.0935 17.8387C28.1444 19.2167 28.1274 20.7906 27.0906 22.1816C26.2524 23.3061 25.0985 24.0378 23.8368 24.6154C21.8579 25.5217 19.758 25.9646 17.5919 26.1345C15.1688 26.3249 12.7731 26.167 10.4143 25.5765C8.73398 25.1558 7.12173 24.5615 5.74762 23.4974C5.19855 23.0721 4.68255 22.5642 4.27902 22.0043C3.33207 20.6913 3.38783 19.2018 4.33761 17.8851C4.99725 16.9714 5.8856 16.3205 6.86467 15.7754C8.39471 14.923 10.7611 14.1885 12.5728 14.0102V14.3278C12.5728 15.4727 12.5728 16.6186 12.5728 17.7635C12.5728 18.5472 12.9735 18.9483 13.7607 18.9493C15.0781 18.9511 16.3955 18.9511 17.7139 18.9493C18.5001 18.9483 18.9008 18.5472 18.9018 17.7635C18.9027 16.6278 18.9018 15.4931 18.9018 14.3575C18.9018 14.2488 18.9018 14.1411 18.9018 13.9879V13.9879ZM4.65515 20.006C4.67216 20.1601 4.67783 20.279 4.69956 20.3941C4.84226 21.1546 5.28833 21.7368 5.84874 22.2457C6.70968 23.0275 7.72467 23.567 8.81242 23.9645C12.792 25.4167 16.8416 25.5356 20.9374 24.517C22.5185 24.1233 24.0154 23.5262 25.3083 22.5159C25.8933 22.0581 26.396 21.5251 26.6531 20.8175C26.7448 20.565 26.7769 20.2929 26.8402 20.0143H25.8148C25.7137 20.2753 25.674 20.5473 25.5237 20.7284C25.1741 21.1481 24.8131 21.579 24.3802 21.9058C23.2802 22.736 21.9959 23.203 20.6652 23.5429C18.0919 24.1994 15.4826 24.2969 12.8563 23.945C11.1306 23.7138 9.45789 23.2829 7.9288 22.436C6.91476 21.8743 5.94986 21.2447 5.67296 20.0069H4.65609L4.65515 20.006Z" fill="#1195FF"/>
<path id="Vector_3" d="M13.6483 12.7455H17.831V17.8981H13.6483V12.7455Z" fill="#1195FF"/>
<path id="Vector_4" d="M2.56279 7.54555C2.86237 7.54555 3.14494 7.53441 3.42562 7.55298C3.49272 7.55762 3.59573 7.65141 3.60896 7.71827C3.85279 8.91983 4.46612 9.49555 5.68618 9.6339V10.6395C4.43966 10.7835 3.73087 11.4595 3.58534 12.7084H2.62138C2.4938 12.3518 2.41631 11.998 2.2462 11.6925C1.91638 11.0983 1.37864 10.7593 0.688757 10.685C0.502582 10.6646 0.419417 10.6117 0.431703 10.4148C0.447769 10.1585 0.435483 9.90133 0.435483 9.6469C1.84928 9.5039 2.48719 8.58462 2.56185 7.54462L2.56279 7.54555Z" fill="#1195FF"/>
<path id="Vector_5" d="M26.8411 5.99108C27.1322 5.99108 27.4242 5.97994 27.7144 5.99944C27.7758 6.00316 27.8675 6.1118 27.8807 6.18423C28.0962 7.33844 28.7624 7.95779 29.9778 8.07851V9.07951C28.7067 9.22622 27.9913 9.91058 27.8514 11.1614H26.8411C26.8014 10.9608 26.7854 10.7611 26.7211 10.5782C26.4338 9.75272 25.8573 9.25036 24.9681 9.13151C24.7686 9.10458 24.6836 9.04794 24.6978 8.83994C24.7148 8.59386 24.7015 8.34594 24.7015 8.09151C25.984 7.94758 26.688 7.2558 26.8402 5.99108H26.8411Z" fill="#1195FF"/>
<path id="Vector_6" d="M18.915 3.90176V2.90169C20.1766 2.7689 20.876 2.08083 21.0329 0.836548H22.0431C22.1924 2.0539 22.8814 2.76333 24.1638 2.90262V3.89897C22.9097 4.03361 22.1981 4.72168 22.0459 5.97339H21.0366C20.8835 4.74954 20.2022 4.04476 18.915 3.90268V3.90176Z" fill="#1195FF"/>
<path id="Vector_7" d="M11.52 5.45358C10.3207 5.5613 9.52593 6.26608 9.3785 7.52801H8.37674C8.21892 6.31158 7.5451 5.6003 6.26456 5.46008V4.45909C7.51297 4.3198 8.21798 3.63916 8.36729 2.39209H9.39078C9.47867 3.3253 9.93041 3.9883 10.831 4.32166C10.9435 4.36344 11.0673 4.41359 11.1817 4.40709C11.502 4.38666 11.5455 4.55287 11.5238 4.81008C11.5049 5.02458 11.52 5.24187 11.52 5.45358V5.45358Z" fill="#1195FF"/>
<path id="Vector_8" d="M10.4436 26.701C11.5238 26.8681 12.5501 27.0269 13.6265 27.1931C13.5084 27.6584 13.3959 28.1375 13.2617 28.6101C13.1861 28.8776 13.0888 29.1413 12.9782 29.3966C12.6975 30.0466 12.0199 30.3911 11.3159 30.2435C10.7441 30.1237 10.2036 29.9176 9.9758 29.3372C9.86806 29.0633 9.80663 28.7197 9.87184 28.4411C10.0127 27.8459 10.2499 27.273 10.4436 26.7001V26.701Z" fill="#1195FF"/>
<path id="Vector_9" d="M17.8121 27.2006C18.9235 27.0297 19.9499 26.871 21.0414 26.7029C21.2313 27.3148 21.4374 27.9351 21.6103 28.5656C21.6547 28.7272 21.6141 28.924 21.5725 29.0949C21.41 29.7616 20.7645 30.2222 19.9527 30.2677C19.3053 30.3039 18.7052 29.9148 18.4831 29.2778C18.2459 28.5953 18.038 27.9026 17.8121 27.2006V27.2006Z" fill="#1195FF"/>
<path id="Vector_10" d="M16.7726 27.2433C16.954 27.9723 17.1525 28.6817 17.298 29.4013C17.3424 29.6186 17.2867 29.8842 17.1959 30.094C16.8444 30.9103 15.9976 31.044 15.0856 30.8193C14.3816 30.6456 14.0338 29.9353 14.2143 29.1785C14.3362 28.6659 14.461 28.1543 14.6008 27.6463C14.736 27.156 14.6141 27.2396 15.1527 27.2424C15.6782 27.2452 16.2036 27.2424 16.7716 27.2424L16.7726 27.2433Z" fill="#1195FF"/>
<path id="Vector_11" d="M22.028 26.4503C22.854 26.1197 23.6375 25.804 24.4237 25.4957C24.4785 25.4744 24.5636 25.479 24.6165 25.5059C25.6693 26.0399 25.7638 27.2758 24.8103 27.9713C24.4984 28.1988 24.1856 28.4105 23.7716 28.4077C23.2254 28.404 22.8049 28.1765 22.562 27.702C22.3541 27.2972 22.2019 26.8644 22.028 26.4512V26.4503Z" fill="#1195FF"/>
<path id="Vector_12" d="M9.44466 26.4474C9.2755 26.8513 9.12145 27.2608 8.93433 27.6555C8.67445 28.2033 8.12726 28.5005 7.51203 28.3835C6.75505 28.2405 5.72967 27.4493 6.05477 26.4372C6.19274 26.0082 6.51879 25.751 6.86278 25.503C6.90248 25.4743 6.97336 25.4845 7.02911 25.4826C7.04707 25.4826 7.06503 25.5003 7.08393 25.5077C7.85887 25.816 8.63286 26.1242 9.44466 26.4474V26.4474Z" fill="#1195FF"/>
<path id="Vector_13" d="M2.64961 19.1276C2.43414 20.0747 2.57967 20.9429 2.95391 21.839C2.54093 21.9151 2.16007 22.0303 1.77544 22.0479C1.09595 22.0795 0.525135 21.5632 0.457092 20.8993C0.43063 20.6439 0.429685 20.3811 0.457092 20.1258C0.535531 19.3578 1.26511 18.8378 2.03911 18.9836C2.23568 19.0208 2.42847 19.0746 2.65055 19.1266L2.64961 19.1276Z" fill="#1195FF"/>
<path id="Vector_14" d="M28.8295 19.1572C29.6403 18.8174 30.334 18.9353 30.7517 19.4692C31.1609 19.992 31.16 21.0812 30.729 21.5715C30.1715 22.2048 29.5553 22.1565 28.5422 21.787C28.889 20.9438 29.0384 20.0756 28.8295 19.1572V19.1572Z" fill="#1195FF"/>
<path id="Vector_15" d="M5.85537 24.9033C5.42632 25.1559 5.01144 25.441 4.5616 25.6545C4.08624 25.8802 3.58631 25.8152 3.19884 25.4642C2.66677 24.9822 2.45886 24.3545 2.60724 23.6516C2.68946 23.2635 2.95501 22.9803 3.3302 22.8205C3.3973 22.7918 3.54095 22.8122 3.57969 22.8623C4.19965 23.6535 4.96703 24.2793 5.8119 24.8216C5.82608 24.8309 5.8308 24.855 5.85537 24.9033V24.9033Z" fill="#1195FF"/>
<path id="Vector_16" d="M25.6523 24.9117C26.2514 24.4019 26.8336 23.9126 27.4072 23.4121C27.5499 23.2876 27.686 23.1428 27.7815 22.9822C27.9421 22.7119 28.1141 22.7677 28.323 22.9069C28.7804 23.2124 29.0072 23.7529 28.8919 24.2849C28.89 24.2942 28.8881 24.3044 28.8862 24.3146C28.5829 25.8598 27.342 26.1235 26.3686 25.3574C26.1418 25.1782 25.8753 25.0473 25.6541 24.9108L25.6523 24.9117Z" fill="#1195FF"/>
<path id="Vector_17" d="M3.075 17.9306C2.30573 17.3521 2.47773 16.4105 2.98617 15.6649C3.33584 15.1514 4.2015 14.8412 5.15411 15.6212C4.30924 16.261 3.57683 16.9983 3.075 17.9306V17.9306Z" fill="#1195FF"/>
<path id="Vector_18" d="M28.3986 17.9259C27.8967 17.0057 27.1842 16.2666 26.3421 15.6426C26.9054 15.0232 27.8769 14.974 28.4052 15.572C28.9306 16.1663 29.2312 17.3483 28.3986 17.9259Z" fill="#1195FF"/>
</g>
</svg>
