<svg width="32" height="20" viewBox="0 0 32 20" fill="none" xmlns="http://www.w3.org/2000/svg">
<g id="Group 4">
<path id="Vector" d="M5.19599 0.722229V5.17259H0.109863V15.9352H8.37483V0.722229H5.19599ZM5.19599 13.4376H3.2887V7.76107H5.19599V13.4376Z" fill="#59B6FB"/>
<path id="Vector_2" d="M12.8251 5.17261H9.64627V15.9806H12.8251V5.17261Z" fill="#59B6FB"/>
<path id="Vector_3" d="M12.8251 0.722229H9.64627V3.90106H12.8251V0.722229Z" fill="#59B6FB"/>
<path id="Vector_4" d="M14.0966 5.17261V15.9352H19.1828V17.2068H14.0966V19.7952H22.3616V5.17261H14.0966ZM19.1828 13.4376H17.2755V7.76108H19.1828V13.4376Z" fill="#59B6FB"/>
<path id="Vector_5" d="M23.6331 5.17261V15.9352H28.7193V17.2068H23.6331V19.7952H31.8981V5.17261H23.6331ZM28.7193 13.4376H26.812V7.76108H28.7193V13.4376Z" fill="#59B6FB"/>
</g>
</svg>
