<svg width="32" height="31" viewBox="0 0 32 31" fill="none" xmlns="http://www.w3.org/2000/svg">
<g id="Group 35">
<path id="Vector" d="M11.1188 11.7216C9.39674 11.7216 7.74073 11.7216 6.08472 11.7216C5.58385 11.7216 5.08197 11.7288 4.5811 11.7165C4.21841 11.7083 3.95832 11.4961 3.94715 11.1375C3.92175 10.3821 3.93902 9.62581 3.93902 8.84692H21.127C21.127 9.63503 21.1514 10.4119 21.1168 11.1856C21.1006 11.5484 20.813 11.7196 20.3792 11.7196C18.4723 11.7216 16.5643 11.7196 14.6574 11.7196C14.443 11.7196 14.2276 11.7196 13.9787 11.7196C14.0183 11.8241 14.0386 11.8948 14.0701 11.9604C14.4725 12.8008 14.8697 13.6432 15.2862 14.4774C15.337 14.5789 15.4843 14.6947 15.588 14.6957C18.52 14.706 21.4521 14.7029 24.3841 14.7008C24.4156 14.7008 24.4461 14.6865 24.44 14.6875C24.2013 13.6975 23.9625 12.7096 23.7238 11.7226C23.677 11.531 23.6232 11.3393 23.5927 11.1456C23.5419 10.829 23.6791 10.6414 23.9899 10.6404C25.6683 10.6332 27.3467 10.6322 29.025 10.6404C29.3654 10.6425 29.4852 10.8566 29.3938 11.2502C29.1713 12.2012 28.9458 13.1513 28.7162 14.1003C28.6704 14.2878 28.6024 14.4713 28.5374 14.6814C28.6135 14.6885 28.704 14.7029 28.7944 14.7029C29.3938 14.7049 29.9932 14.7029 30.5926 14.7039C31.1534 14.7039 31.2439 14.7941 31.2439 15.3475C31.2439 17.7549 31.2439 20.1633 31.2439 22.5706C31.2439 25.2198 31.2398 27.8701 31.25 30.5193C31.251 30.8114 31.189 30.9323 30.873 30.9149C30.362 30.8882 29.8479 30.8913 29.3369 30.9139C29.0392 30.9272 28.9458 30.8391 28.9478 30.5285C28.96 28.0658 28.9549 25.6031 28.9549 23.1404V17.8615H22.8541C22.3573 16.3724 21.5181 15.6744 20.2979 15.7062C19.0981 15.738 18.2843 16.4502 17.8739 17.8512H2.91697V18.2704C2.91697 22.338 2.91697 26.4066 2.91697 30.4742C2.91697 30.7632 2.77439 30.9081 2.48925 30.9087C1.97721 30.9087 1.46415 30.8995 0.952107 30.9128C0.722501 30.9231 0.624969 30.8667 0.624969 30.6085C0.631065 25.474 0.629033 20.3395 0.631065 15.2051C0.631065 14.8269 0.768219 14.709 1.19695 14.709C2.77778 14.707 4.35759 14.709 5.93842 14.708C7.08239 14.708 8.22737 14.6998 9.37134 14.7142C9.6172 14.7172 9.73607 14.6332 9.83766 14.4139C10.2451 13.5305 10.6718 12.6563 11.1188 11.7226V11.7216ZM26.5186 13.4895C26.9575 13.4813 27.3182 13.1062 27.3141 12.6614C27.3111 12.2176 26.9423 11.8477 26.5034 11.8477C26.0533 11.8477 25.6734 12.2422 25.6896 12.6932C25.7059 13.14 26.0787 13.4977 26.5186 13.4895ZM12.5411 10.789C12.8256 10.7859 13.0593 10.5461 13.0511 10.2653C13.043 9.98553 12.7951 9.75391 12.5147 9.76416C12.2465 9.77441 12.024 10.005 12.022 10.2745C12.0199 10.5594 12.2536 10.7921 12.5401 10.788L12.5411 10.789Z" fill="#1195FF"/>
<path id="Vector_2" d="M21.1503 8.08339H3.9248C3.9248 7.95221 3.9248 7.83538 3.9248 7.71752C3.9248 5.54076 3.9248 3.36399 3.9248 1.18722C3.92582 0.487249 4.12393 0.291504 4.82494 0.291504C9.96974 0.291504 15.1135 0.291504 20.2583 0.291504C20.9522 0.291504 21.1503 0.491349 21.1503 1.19747C21.1503 3.37423 21.1503 5.551 21.1503 7.72777V8.08339Z" fill="#1195FF"/>
<path id="Vector_3" d="M22.4833 30.9006H20.7104C20.7104 30.3646 20.7104 29.8409 20.7104 29.3162C20.7104 29.2065 20.7084 29.0969 20.7104 28.9862C20.7135 28.7392 20.6028 28.568 20.3549 28.566C20.107 28.5639 19.9922 28.732 19.9922 28.98C19.9922 29.5078 19.9922 30.0346 19.9922 30.5624C19.9922 30.669 19.9922 30.7756 19.9922 30.8975H18.2203C18.2203 30.7817 18.2203 30.6669 18.2203 30.5511C18.2203 29.7159 18.2234 28.8806 18.2183 28.0454C18.2163 27.7389 18.0618 27.5709 17.8221 27.6006C17.5589 27.6334 17.5 27.8179 17.501 28.0515C17.5041 28.8755 17.5021 29.6995 17.5021 30.5245C17.5021 30.6423 17.5021 30.7602 17.5021 30.9129H16.1061C15.4305 30.9129 14.7549 30.9211 14.0803 30.9067C13.936 30.9037 13.7938 30.8196 13.6516 30.7735C13.7196 30.6464 13.7664 30.4999 13.8599 30.3974C14.0956 30.1381 14.3475 29.8952 14.6005 29.6534C15.3117 28.9718 15.6571 28.1397 15.6408 27.1497C15.6327 26.6249 15.6398 26.0992 15.6398 25.5509H25.0506C25.0557 25.6708 25.0638 25.7969 25.0679 25.9229C25.0872 26.5809 25.0598 27.245 25.136 27.8968C25.2142 28.5701 25.5748 29.1276 26.0554 29.6011C26.3592 29.9003 26.666 30.1975 26.9576 30.5091C27.0195 30.5757 27.0459 30.7038 27.0358 30.7981C27.0307 30.8432 26.9017 30.9067 26.8285 30.9078C25.6328 30.9149 24.437 30.9129 23.2036 30.9129V30.5316C23.2036 29.2352 23.2026 27.9378 23.2046 26.6413C23.2046 26.4312 23.1873 26.2375 22.9537 26.1627C22.6875 26.0777 22.4874 26.2714 22.4863 26.6229C22.4833 27.9193 22.4853 29.2168 22.4853 30.5132C22.4853 30.6321 22.4853 30.751 22.4853 30.9016L22.4833 30.9006Z" fill="#1195FF"/>
<path id="Vector_4" d="M15.649 24.7719C15.649 24.1704 15.6225 23.5995 15.6561 23.0318C15.6896 22.4681 16.1325 22.0869 16.7147 22.0766C17.3222 22.0653 17.9298 22.0746 18.5769 22.0746C18.5769 21.9137 18.5769 21.7856 18.5769 21.6574C18.5769 20.525 18.5607 19.3936 18.582 18.2611C18.6074 16.8745 19.9292 16.0188 21.1219 16.6101C21.8178 16.9544 22.1257 17.555 22.1287 18.3236C22.1318 19.4448 22.1287 20.566 22.1297 21.6861C22.1297 21.804 22.1297 21.9208 22.1297 22.0725C22.718 22.0725 23.2707 22.0725 23.8233 22.0725C24.6564 22.0746 25.0608 22.4835 25.0638 23.329C25.0659 23.8004 25.0638 24.2708 25.0638 24.7709H15.6479L15.649 24.7719ZM20.9726 18.2806C20.9776 17.9311 20.7135 17.6513 20.3691 17.6421C20.0094 17.6329 19.725 17.9127 19.728 18.2744C19.7301 18.6208 20.0054 18.8986 20.3478 18.8996C20.6901 18.9006 20.9675 18.626 20.9726 18.2796V18.2806Z" fill="#1195FF"/>
<path id="Vector_5" d="M11.7385 25.5437V28.5854H3.65659V25.5437H11.7385V25.5437ZM7.68384 27.4233C8.15321 27.4233 8.33608 27.3228 8.33405 27.0656C8.33202 26.8063 8.14406 26.7018 7.68079 26.7028C7.23783 26.7028 7.06004 26.8012 7.04785 27.0512C7.03566 27.3146 7.22158 27.4233 7.68282 27.4233H7.68384Z" fill="#1195FF"/>
<path id="Vector_6" d="M3.64746 24.7689V22.0275H11.7284V24.7689H3.64746ZM7.81999 23.0462C7.22972 23.0462 7.04888 23.1445 7.04787 23.4028C7.04787 23.6641 7.23683 23.7718 7.69706 23.7718C8.14815 23.7718 8.36251 23.6508 8.33 23.3895C8.28124 22.999 7.9734 23.0441 7.81999 23.0462Z" fill="#1195FF"/>
<path id="Vector_7" d="M3.65457 21.2578V18.5963H11.7223V21.2578H3.65457ZM7.6869 20.2914C8.15018 20.2914 8.33203 20.192 8.33508 19.9368C8.33813 19.6775 8.14713 19.5658 7.69605 19.5658C7.23887 19.5658 7.05193 19.6704 7.04787 19.9276C7.0438 20.1858 7.22871 20.2914 7.68589 20.2914H7.6869Z" fill="#1195FF"/>
<path id="Vector_8" d="M28.1747 9.89326H24.8413C24.8413 9.04264 24.7834 8.20637 24.8576 7.38137C24.9328 6.5533 25.7689 5.94044 26.5837 5.99578C27.4544 6.05522 28.1422 6.72342 28.1696 7.58121C28.194 8.34575 28.1747 9.11131 28.1747 9.89224V9.89326Z" fill="#1195FF"/>
</g>
</svg>
