<svg width="35" height="35" viewBox="0 0 35 35" fill="none" xmlns="http://www.w3.org/2000/svg">
<g id="Group">
<path id="Vector" d="M34.5393 1.29263C34.5151 0.858979 34.1707 0.513918 33.737 0.489758C33.7352 0.489758 33.7339 0.489758 33.7314 0.489139C33.6224 0.484183 33.3195 0.472412 32.8555 0.472412C31.3309 0.472412 28.2551 0.600648 24.7908 1.45617C20.4203 2.53658 16.8848 4.40313 14.2823 7.00688C13.1567 8.1325 12.1574 9.44708 11.3118 10.914L11.2505 11.0206L11.2096 11.0912L11.1514 11.0336L9.91919 9.80143C9.76183 9.64346 9.54191 9.55239 9.31765 9.55239C9.19065 9.55239 9.06861 9.57965 8.95524 9.63355L1.01391 13.3945C0.707873 13.5401 0.517063 13.8536 0.528214 14.193L0.946375 26.3129C0.958145 26.6512 1.16878 26.9497 1.4841 27.0736C1.5826 27.1133 1.68792 27.1331 1.79571 27.1331C2.02307 27.1331 2.23617 27.0445 2.39662 26.8835L9.27429 20.0058L9.31889 19.9618L9.36349 20.0058L11.5478 22.1901L11.5918 22.2348L11.5478 22.2794L4.67018 29.157C4.50973 29.3169 4.42114 29.53 4.42114 29.7579C4.42114 29.9859 4.50911 30.1984 4.67018 30.3588C4.83001 30.5193 5.04312 30.6079 5.27047 30.6079C5.49783 30.6079 5.71093 30.5199 5.872 30.3588L12.7497 23.4806L12.7943 23.4366L12.8389 23.4806L15.0226 25.6649L15.0666 25.7095L15.0226 25.7541L8.14556 32.6318C7.9052 32.8709 7.83085 33.229 7.95475 33.5437C8.07927 33.859 8.37787 34.0703 8.71674 34.082L20.836 34.4996C20.8465 34.5002 20.8552 34.5002 20.8632 34.5002H20.8657C21.1922 34.5002 21.4933 34.3094 21.6333 34.0139L25.3949 26.0732C25.5479 25.7492 25.4804 25.362 25.2276 25.1086L23.9954 23.877L23.9378 23.8194L24.0084 23.7779L24.1144 23.7166C25.5826 22.8716 26.8971 21.8723 28.0222 20.7461C29.6774 19.0902 31.0496 17.031 32.1003 14.6255C32.9341 12.7186 33.5698 10.5901 33.9892 8.29791C34.6756 4.54561 34.5554 1.61415 34.5393 1.29201V1.29263ZM8.55195 18.2923L8.54638 18.3177L8.54266 18.3356L8.52965 18.3486L2.68035 24.1979L2.57876 24.2989L2.5738 24.1552L2.24918 14.7326L2.24794 14.6917L2.28511 14.6744L9.10269 11.4456L9.14295 11.4264L9.17393 11.4573L10.3683 12.6517L10.3987 12.6821L10.3807 12.7217L10.3541 12.7812C9.5989 14.439 8.99303 16.2931 8.55319 18.2923H8.55195ZM23.5834 25.927L20.354 32.7445L20.3367 32.7817L20.2958 32.7805L10.8732 32.4552L10.7295 32.4503L10.8305 32.3487L16.6798 26.5L16.6922 26.4876L16.7095 26.4839L16.7361 26.4777C18.7371 26.0372 20.5913 25.4314 22.2478 24.6768L22.306 24.6502L22.3463 24.6322L22.3767 24.6626L23.5717 25.857L23.6027 25.8879L23.5834 25.9282V25.927ZM32.8567 2.23488V2.32967C32.8487 3.39458 32.7675 5.55167 32.3072 8.04144C31.9275 10.1006 31.3569 12.0298 30.611 13.7737C29.6291 16.0695 28.3536 18.011 26.8203 19.5449C25.5448 20.8204 23.9985 21.9163 22.2237 22.8028L22.2137 22.8078H22.2119L22.21 22.809C22.1642 22.827 22.1183 22.8505 22.0737 22.8772L22.0725 22.8784H22.0706L22.0626 22.8834C20.4469 23.6732 18.6182 24.3039 16.6246 24.7611L16.5738 24.7728L16.5404 24.7803L16.5162 24.7561L14.0395 22.28L13.9955 22.2354L14.0395 22.1908L17.5737 18.6565C17.7341 18.4967 17.8227 18.2836 17.8227 18.0556C17.8227 17.8276 17.7348 17.6152 17.5737 17.4547C17.4145 17.2943 17.2014 17.2057 16.9734 17.2057C16.7454 17.2057 16.5329 17.2936 16.3725 17.4547L12.8383 20.9889L12.7937 21.0329L12.749 20.9889L10.2723 18.5128L10.2481 18.488L10.2562 18.4546L10.268 18.4038C10.7233 16.4146 11.3539 14.5858 12.1444 12.9683L12.1457 12.9664L12.1469 12.9646L12.1512 12.9572C12.1797 12.9082 12.2033 12.8624 12.22 12.8184V12.8165L12.2212 12.8147L12.225 12.8066C13.1127 11.0305 14.2086 9.48363 15.4841 8.20808C17.8432 5.84965 21.0763 4.14232 25.0944 3.13316C28.3424 2.31728 31.2535 2.18099 32.6987 2.17231H32.7935L32.8573 2.17108V2.23488H32.8567Z" fill="white"/>
<path id="Vector_2" d="M24.0778 7.14575C23.0612 7.14575 22.106 7.54161 21.3873 8.26085C20.6675 8.97947 20.2722 9.93473 20.2722 10.9513C20.2722 11.9679 20.6681 12.9232 21.3873 13.6418C22.1053 14.361 23.0612 14.7563 24.0778 14.7563C25.0944 14.7563 26.0497 14.3604 26.7689 13.6418C27.4863 12.9238 27.8809 11.9685 27.8809 10.9513C27.8809 9.93411 27.4857 8.97761 26.7683 8.26085C26.0497 7.54099 25.0944 7.14575 24.0778 7.14575ZM25.5671 12.44C25.1694 12.8377 24.6403 13.057 24.0778 13.057C23.5153 13.057 22.9869 12.8377 22.5885 12.44C22.1908 12.0423 21.9721 11.5132 21.9721 10.9513C21.9721 10.3894 22.1914 9.85977 22.5892 9.46205C22.7874 9.26443 23.0166 9.11018 23.2718 9.00486C23.5265 8.89893 23.7978 8.84565 24.0778 8.84565C24.6397 8.84565 25.1687 9.06434 25.5671 9.46205C26.3879 10.2829 26.3879 11.6191 25.5671 12.44Z" fill="white"/>
</g>
</svg>
