<svg width="82" height="20" viewBox="0 0 82 20" fill="none" xmlns="http://www.w3.org/2000/svg">
<g id="Group 3">
<g id="LOGO 1">
<g id="Group" opacity="0.3">
<path id="Vector" fill-rule="evenodd" clip-rule="evenodd" d="M78.4076 2.08154L81.8056 2.10026C81.8056 2.10026 75.488 10.661 74.9721 11.3587C74.8046 11.5846 74.5501 11.8283 74.421 12.1303C74.0947 12.8896 73.7596 14.5551 73.7596 14.5551L70.6505 14.5707C70.6505 14.5707 71.1343 12.8345 71.1143 11.9098C71.0969 11.102 70.6844 10.2952 70.4531 9.48505C70.2193 8.66488 69.9019 7.0601 69.9019 7.0601H73.0984L73.5393 8.82368L78.4076 2.08154" fill="white"/>
<path id="Vector_2" fill-rule="evenodd" clip-rule="evenodd" d="M71.9731 3.88694C72.6002 4.26497 72.985 6.35044 72.985 6.35044C72.985 6.35044 69.7037 6.39882 67.9181 6.39882H66.375L64.5012 14.5551H61.6355C61.6355 14.5551 63.419 5.69129 63.84 4.08428C63.9764 3.56395 64.7747 3.65326 66.1226 3.65326H68.2752C69.6652 3.65326 71.2898 3.47575 71.9731 3.88694M58.632 7.85925C58.632 7.85925 58.7213 7.33574 58.329 6.72942C57.9938 6.21258 57.6843 6.09233 56.8025 6.06473C54.3126 5.98652 54.361 7.83164 54.361 7.83164L58.632 7.85925ZM61.3324 5.74618C61.6972 7.06241 61.0018 10.1551 61.0018 10.1551C61.0018 10.1551 57.3699 10.0945 55.3806 10.1551C54.762 10.1739 54.0217 10.0878 53.8375 10.3756C53.5784 10.7788 53.9322 11.3996 54.232 11.6618C54.5771 11.9637 55.2492 11.9981 55.4908 12.0287C57.1055 12.2339 60.4848 12.0817 60.4848 12.0817L59.8994 14.6739C59.8994 14.6739 55.1239 14.9134 52.7353 14.3433C52.2636 14.231 51.8215 14.004 51.5228 13.6821C51.4413 13.594 51.3705 13.4739 51.2934 13.3702C51.2319 13.2874 51.0523 13.0153 50.9717 12.8002C50.4261 11.3464 51.0356 8.56138 51.6331 7.06891C51.7024 6.89599 51.7895 6.6766 51.8812 6.4902C51.9957 6.25779 52.0926 5.9954 52.1842 5.85644C52.2457 5.76062 52.322 5.69891 52.386 5.60848C52.4597 5.50156 52.5455 5.39797 52.625 5.30548C52.8455 5.04976 53.0957 4.86891 53.3966 4.64428C54.3918 3.89899 56.1928 3.32044 58.3565 3.5419C59.1711 3.62566 60.4013 3.9166 61.0018 4.75437C61.1626 4.97805 61.2421 5.42224 61.3324 5.74634V5.74618ZM48.1887 3.64311L50.9674 3.62677C50.9674 3.62677 49.4188 10.9728 48.6296 14.5551H45.433C43.199 14.5551 41.2096 14.8317 40.3631 13.2323C39.5419 11.6794 40.3256 9.12566 40.6937 7.39063C40.9538 6.16277 41.5018 3.6531 41.5018 3.6531L44.3807 3.62677C44.3807 3.62677 43.5672 7.53404 43.2287 9.48498C43.1075 10.1838 42.8575 10.8418 43.1186 11.3585C43.3666 11.8503 43.7138 11.8855 44.7718 11.9098C45.107 11.9177 46.2048 11.9098 46.2048 11.9098L48.1887 3.64311M35.1827 8.93371C35.4737 7.90002 35.898 6.77908 35.8441 5.84755C35.7857 4.8513 34.9503 3.94421 34.4113 3.75352C32.7877 3.18036 31.2678 3.98164 30.6637 4.63524C29.8823 5.48173 29.6177 6.47053 29.341 7.8318C29.1351 8.84233 28.9663 9.90918 29.341 10.6973C30.0044 12.0906 32.0734 11.7863 34.301 11.7997C34.6316 10.9135 34.9049 9.91822 35.1827 8.93371ZM39.0405 4.85574C39.3578 7.16362 38.1401 9.71104 37.3012 11.9263C38.1566 12.0035 38.9061 11.9144 38.9601 11.9781C39.0162 12.0608 38.3867 14.6223 38.1673 14.629C37.4885 14.6466 35.239 14.6653 34.301 14.6653C31.2401 14.6653 28.3766 14.8647 26.9164 13.3427C26.3234 12.7244 25.9133 11.6639 25.814 10.9178C25.6487 9.67233 25.8559 8.30106 26.1448 7.17044C26.406 6.1496 26.7409 5.18635 27.247 4.30447C28.5332 2.05942 30.7707 0.392923 34.5214 0.777621C35.2489 0.852499 36.2937 1.17105 36.9463 1.54908C36.9914 1.57557 37.1492 1.70122 37.1854 1.72327C38.0672 2.28437 38.8707 3.62344 39.0405 4.85574V4.85574ZM25.4977 3.65644C25.3125 4.4996 25.1274 5.4554 24.9323 6.28857H21.8461C22.0852 5.36497 22.2683 4.44677 22.5075 3.64327C23.495 3.64327 24.4132 3.65644 25.4978 3.65644M21.7359 7.06018H24.7119C24.3228 9.21386 23.5523 12.6879 22.9484 15.1062C22.5703 16.6196 22.3179 17.7239 21.295 18.5229C21.2035 18.5946 21.1507 18.5605 21.0745 18.6332C20.886 18.8129 20.0142 19.0214 19.5316 19.074C18.7468 19.1591 17.8595 19.0851 16.895 19.0653C17.1474 18.1428 17.433 17.0351 17.6579 16.2082C20.0089 16.4928 20.0684 14.2706 20.5236 12.1303C20.7869 10.8935 21.585 7.55609 21.7359 7.06018" fill="white"/>
<g id="Group_2">
<path id="Vector_3" fill-rule="evenodd" clip-rule="evenodd" d="M14.7919 12.6814L14.7282 12.8467C13.6415 14.9629 11.7158 16.2612 8.9691 16.3185C7.68508 16.345 6.46166 16.0155 5.66244 15.6573C3.93772 14.8824 2.48697 13.4453 1.69473 11.9098C0.558241 9.70868 0.35328 6.6468 2.71636 4.35986C2.75285 4.35986 2.4297 4.85577 2.46619 4.85577L2.40114 5.06739C0.698319 10.3986 5.94465 14.9674 11.0446 14.4448C12.2702 14.3192 13.8331 13.648 14.7919 12.6814Z" fill="white"/>
<path id="Vector_4" fill-rule="evenodd" clip-rule="evenodd" d="M11.7057 10.4769C12.9888 10.4856 14.329 9.88598 15.1227 9.04409C14.4283 10.8066 12.4179 11.9394 9.72196 11.5791C7.46453 11.2771 5.31419 9.00554 5.09273 6.7294C4.93076 5.07289 5.50804 4.08426 6.4594 2.88495C6.1288 3.51221 6.00522 3.99589 5.97444 4.30445C5.61306 7.88777 8.83692 10.458 11.7057 10.4769" fill="white"/>
<path id="Vector_5" fill-rule="evenodd" clip-rule="evenodd" d="M14.9937 6.02619C14.7943 6.48371 13.6459 7.34765 13.1387 7.45568C11.1305 7.88353 9.84443 6.93123 9.17069 5.84757C9.07059 5.68575 8.88546 5.24379 8.8523 5.13131C8.59103 4.24294 8.71112 2.89927 9.49051 2.2038C9.25572 2.86516 9.22146 3.63329 9.34504 4.13268C9.41991 4.43457 9.64804 4.96173 9.87632 5.29328C10.2916 5.89722 10.5551 6.04396 11.0886 6.36473C11.329 6.50909 11.5868 6.62489 11.6981 6.65662C12.204 6.80558 13.2721 7.1979 14.9938 6.02619" fill="white"/>
</g>
</g>
</g>
</g>
</svg>
