<svg width="107" height="20" viewBox="0 0 107 20" fill="none" xmlns="http://www.w3.org/2000/svg">
<g id="Group 2">
<path id="Vector" opacity="0.3" d="M36.1883 6.61393H42.3668C42.9979 4.89209 42.5045 1.92857 33.8894 2.30335C30.6049 2.33329 23.6446 2.87211 21.6761 9.34396C21.0414 11.6729 22.343 16.1188 30.7283 14.804C32.7614 14.4568 37.2516 13.0199 39.2057 14.5167L41.9358 7.76342H33.602L32.7399 10.2061H34.8952C34.4222 11.1784 32.7614 11.7172 30.872 11.7866C29.0783 11.7172 27.6857 11.2239 27.8546 9.48765C28.0449 7.72151 29.8865 5.1172 33.602 5.17707C34.6916 5.1627 35.8136 5.52192 36.1883 6.61393V6.61393ZM45.383 2.73441H50.988L46.2464 14.6603H40.6414L45.383 2.73441ZM46.6762 14.6603L58.1723 2.73441H65.2129L66.3624 14.6603H60.6149L60.4713 13.0798H53.8605L52.2812 14.6603H46.6762Z" fill="white"/>
<path id="Vector_2" d="M56.879 9.91862H60.1838L59.8953 6.75873L56.879 9.91862Z" fill="#1497FB"/>
<path id="Vector_3" opacity="0.3" d="M67.2244 14.6604L71.9661 2.73444H78.7193L81.8804 9.2015L84.4667 2.73444H89.6382L84.8966 14.6604H78.7193L75.2696 7.33239L72.3971 14.6604H67.2244ZM90.6452 2.73444L89.3521 5.89553H94.5236L91.0763 14.6604H96.3927L99.8411 5.89553H105.014L106.307 2.73444H90.6452ZM18.6586 10.4935C17.5378 9.69722 14.3947 8.12505 10.1811 11.0682C10.8038 9.92113 13.7661 6.64389 18.6586 8.62556C18.7508 9.15839 18.7053 10.0121 18.6586 10.4935Z" fill="white"/>
<path id="Vector_4" opacity="0.3" d="M18.2275 7.18863C12.1735 4.25624 8.55865 8.7105 6.58895 10.7808C4.51748 12.7517 0.918148 12.1494 0.410458 11.9303C0.288325 11.249 0.216482 10.594 0.266772 9.91866C0.216482 4.81901 4.35344 0.682051 9.46147 0.722762C11.4268 0.701428 13.3456 1.321 14.9273 2.48769C16.509 3.65437 17.6676 5.30463 18.2275 7.18863V7.18863ZM18.5149 11.7866C14.7539 9.20263 12.1041 11.583 11.1869 12.7924C7.56961 16.2528 1.6701 13.791 0.841516 13.3659C2.28795 16.7916 5.59513 19.1601 9.46267 19.1134C13.9289 19.1613 17.66 15.9822 18.5149 11.7866V11.7866ZM101.164 15.1393C102.416 15.1393 103.427 14.1203 103.427 12.8642C103.427 11.6189 102.416 10.6012 101.164 10.6012C99.907 10.6012 98.8892 11.6189 98.8892 12.8642C98.8892 13.4676 99.1289 14.0463 99.5555 14.4729C99.9822 14.8996 100.561 15.1393 101.164 15.1393ZM101.164 14.8399C100.057 14.8399 99.2484 13.9766 99.2484 12.8642C99.2484 11.7626 100.057 10.9005 101.164 10.9005C102.266 10.9005 103.068 11.7626 103.068 12.8642C103.069 13.9766 102.267 14.8399 101.164 14.8399ZM101.529 12.9648C101.978 12.9528 102.326 12.7672 102.326 12.2703C102.326 11.8512 102.098 11.5998 101.428 11.5998H100.32V14.1311H100.631V12.9636H101.2L101.925 14.1311H102.296L101.529 12.9648V12.9648ZM100.631 12.7193V11.8213H101.356C101.667 11.8213 101.99 11.8692 101.99 12.2643C101.99 12.7792 101.464 12.7193 101.104 12.7193H100.631V12.7193Z" fill="white"/>
</g>
</svg>
