<svg width="14" height="15" viewBox="0 0 14 15" fill="none" xmlns="http://www.w3.org/2000/svg">
<g id="linkedin-in 1" clip-path="url(#clip0_18_1153)">
<path id="Vector" d="M3.68557 12.7763H1.08028V4.61956H3.68557V12.7763ZM2.38152 3.50691C1.54844 3.50691 0.872711 2.83605 0.872711 2.0261C0.872711 1.63706 1.03167 1.26395 1.31463 0.988849C1.59759 0.713752 1.98136 0.559204 2.38152 0.559204C2.78169 0.559204 3.16546 0.713752 3.44841 0.988849C3.73137 1.26395 3.89034 1.63706 3.89034 2.0261C3.89034 2.83605 3.21433 3.50691 2.38152 3.50691ZM13.4363 12.7763H10.8366V8.80564C10.8366 7.85934 10.817 6.64579 9.48211 6.64579C8.12758 6.64579 7.92001 7.6739 7.92001 8.73746V12.7763H5.31752V4.61956H7.81622V5.73221H7.85268C8.20051 5.09135 9.05014 4.41503 10.3177 4.41503C12.9544 4.41503 13.4391 6.1031 13.4391 8.29567V12.7763H13.4363Z" fill="white"/>
</g>
<defs>
<clipPath id="clip0_18_1153">
<rect width="12.5664" height="13.9627" fill="white" transform="translate(0.872711 0.558472)"/>
</clipPath>
</defs>
</svg>
