<svg width="106" height="17" viewBox="0 0 106 17" fill="none" xmlns="http://www.w3.org/2000/svg">
<g id="LOGO 3">
<path id="H" opacity="0.3" d="M100.006 0.0845337L97.9364 6.38463H86.8772L88.947 0.0845337H83.0549L77.6915 16.4164H83.5685L85.6383 10.1163H96.6975L94.6277 16.4164H100.52L105.883 0.0845337H100.006Z" fill="white"/>
<path id="S" opacity="0.3" d="M76.649 7.6235C76.3922 7.23069 76.0296 6.91342 75.6216 6.7019C75.1684 6.49039 74.6698 6.38463 74.1713 6.38463H61.2538L61.979 4.11841H78.9303L80.2749 0.0845337H61.4804C60.9063 0.0845337 60.3473 0.190291 59.8185 0.401805C59.2142 0.613319 58.6703 0.93059 58.1868 1.33851C57.7638 1.74643 57.2501 2.16946 56.9329 2.68313C56.5552 3.1817 56.2379 3.74071 56.0113 4.32992L55.4976 5.87095C55.3616 6.41485 55.3012 6.97385 55.2861 7.53285C55.3767 8.04653 55.4976 8.5602 55.7091 8.87747C55.9659 9.27029 56.3285 9.58756 56.7365 9.81418C57.1746 10.0559 57.6732 10.1919 58.1868 10.2221H71.1043L70.3791 12.3977H53.4127L52.0831 16.4315H70.8777C71.4518 16.4315 72.0108 16.3258 72.5396 16.1143C73.1439 15.9028 73.6878 15.5855 74.1713 15.1927C74.5943 14.7848 75.108 14.3617 75.4252 13.8481C75.818 13.3495 76.1202 12.7905 76.3468 12.2013L76.8605 10.6602C77.0267 10.1163 77.1022 9.55734 77.072 8.99834C76.9663 8.45445 76.8605 7.95588 76.649 7.6235V7.6235Z" fill="white"/>
<path id="A" opacity="0.3" d="M53.5184 2.57742C53.4278 2.06375 53.3069 1.65583 53.0199 1.32345C52.8084 0.930636 52.476 0.598257 52.0832 0.401851C51.6299 0.190337 51.1313 0.0694717 50.6328 0.0845799H35.8721C35.298 0.0845799 34.739 0.190337 34.2102 0.401851C33.6059 0.613365 33.0469 0.930636 32.5634 1.33856C32.1404 1.74648 31.6418 2.1695 31.3095 2.68318C30.9166 3.18175 30.6145 3.74075 30.3879 4.32997L26.4597 16.4165H32.3519L36.3858 4.13356H47.5356L46.3119 7.74441H38.4556L37.2167 11.5668H45.0579L43.5017 16.4316H49.3033L53.322 4.22421C53.4882 3.68032 53.5486 3.13642 53.5184 2.57742V2.57742Z" fill="white"/>
<path id="D" opacity="0.3" d="M27.8043 2.68324C27.7741 2.21488 27.6382 1.74653 27.3964 1.33861C27.1849 0.915584 26.8072 0.583205 26.3691 0.417015C25.9158 0.190393 25.4173 0.0846359 24.9187 0.099744H6.12417L4.77954 4.13362H21.8064L19.1172 12.3827H2.09029L0.745667 16.4165H19.6308C20.1935 16.4017 20.7498 16.2945 21.2776 16.0993C21.8064 15.7971 22.4107 15.4949 22.9244 15.0719C23.423 14.6791 23.8762 14.2259 24.269 13.7273C24.6014 13.2287 24.8734 12.715 25.1 12.1712L27.5928 4.33002C27.8195 3.81635 27.895 3.24224 27.8043 2.68324Z" fill="white"/>
<path id="_-" opacity="0.3" d="M11.4876 6.3847H1.47091L0.126282 10.1164H10.2487L11.4876 6.3847Z" fill="white"/>
</g>
</svg>
