<svg width="111" height="20" viewBox="0 0 111 20" fill="none" xmlns="http://www.w3.org/2000/svg">
<g id="LOGO 4" opacity="0.3">
<path id="Vector" d="M30.6848 4.8093H21.1483L20.5353 6.23977H22.1701L19.5816 11.9617H17.9468L17.2656 13.4603H28.0282C30.6848 13.4603 31.9791 11.6892 33.0008 9.30507C34.0226 7.19342 34.7719 4.8093 30.6848 4.8093ZM28.6413 9.30507C28.0964 10.5993 27.5514 11.9617 26.2572 11.9617H24.1455L26.6659 6.23977H28.1645C29.8674 6.44412 29.05 8.2833 28.6413 9.30507ZM36.0661 4.8093H43.7635L43.0823 6.23977H41.4474L39.6083 10.5312C38.9271 12.3704 42.8098 12.9153 43.8316 10.5312L45.6707 6.23977H44.1722L44.8533 4.8093H49.7578L49.0766 6.23977H47.578L45.6707 10.5312C44.2403 13.324 43.1504 13.4603 38.9952 13.5284C34.227 13.5965 34.4994 12.3704 35.2487 10.5312L37.156 6.23977H35.4531L36.0661 4.8093V4.8093ZM50.9158 6.23977H52.5506L50.0984 11.9617H48.3955L47.7824 13.4603H52.755L53.5043 11.9617H51.8695L53.7086 7.8746L56.6377 13.4603H60.248L63.4495 6.23977H64.9481L65.5611 4.8093H60.5885L59.9755 6.23977H61.6103L59.703 10.4631L56.774 4.8093H51.597L50.9158 6.23977ZM66.8554 6.23977H68.4902L66.038 11.9617H64.4031L63.7901 13.4603H75.1658L76.8687 9.44131H75.5745L73.2585 11.9617H70.4656L72.9179 6.23977H74.4165L74.9614 4.8093H67.4684L66.8554 6.23977ZM86.9501 4.74118C81.0239 4.74118 80.0702 5.49047 78.6398 8.82825C77.0049 12.4385 76.9368 13.5965 83.4761 13.5965C89.4024 13.5965 90.4923 11.6892 91.6503 8.82825C93.217 5.218 92.4677 4.74118 86.9501 4.74118V4.74118ZM87.6994 8.01083L86.4733 10.8718C85.9965 11.8935 84.9747 12.166 84.4298 12.166H83.5442C82.9993 12.166 81.5688 12.0298 82.25 10.2587L83.4761 7.46589C84.0892 6.37601 84.9747 6.17165 85.5197 6.17165H86.5414C87.0864 6.17165 88.3125 6.64848 87.6994 8.01083V8.01083ZM106.023 4.8093H95.1243L94.4431 6.37601H96.0779L93.6257 11.9617H92.059L91.4459 13.4603H98.8026L99.4838 11.9617H98.0533L98.8708 9.98625H102.958C106.5 9.98625 106.568 9.0326 107.454 7.32966C107.794 6.17165 108.884 4.8093 106.023 4.8093V4.8093ZM102.958 7.46589C102.685 8.01083 102.685 8.48766 101.459 8.48766H99.5519L100.437 6.37601H102.209C103.571 6.37601 103.026 7.19342 102.958 7.46589ZM6.16242 4.40059L1.39418 0.722229L16.4482 9.16884L1.39418 18.0241L6.43489 13.9371C6.16242 14.0052 5.82183 14.0052 5.54936 14.0052C2.6203 14.0052 0.304291 11.8254 0.304291 9.16884C0.304291 6.51224 2.68841 4.33247 5.54936 4.33247C5.6856 4.40059 5.95807 4.40059 6.16242 4.40059ZM6.0943 13.9371C8.81902 13.9371 10.9988 11.8254 10.9988 9.23695C10.9988 6.64848 8.81902 4.53683 6.0943 4.53683C3.36959 4.53683 1.18982 6.64848 1.18982 9.23695C1.25794 11.8254 3.43771 13.9371 6.0943 13.9371V13.9371Z" fill="white"/>
<path id="Vector_2" d="M2.27972 11.008L2.55219 10.395H3.43772L4.5276 8.1471H3.50584L3.77831 7.53404H8.27408C9.90891 7.53404 10.4539 8.48769 10.3176 9.37322C10.2495 10.0544 9.84079 11.008 7.72914 11.008H2.27972ZM6.57114 10.395C7.38855 10.395 7.93349 9.85005 8.13785 9.3051C8.27408 8.8964 8.27408 8.1471 7.38855 8.07898H6.77549L5.68561 10.395H6.57114ZM63.177 18.0923C63.177 18.1604 63.177 18.1604 63.177 18.0923C63.0408 18.4329 63.2451 18.4329 63.722 18.4329H65.6974C66.038 18.4329 66.2423 18.3648 66.3104 18.1604C66.3786 17.9561 66.1742 17.8879 65.6974 17.8879L63.2451 17.8198C62.0871 17.8198 61.7466 17.6155 62.0871 16.9343C62.2234 16.5937 62.4277 16.3894 62.7683 16.2531C63.2451 16.0488 63.7901 16.0488 64.6075 16.0488H66.9916C68.1496 16.0488 68.5583 16.2531 68.2859 16.8662C68.2859 16.9343 68.2177 17.0024 68.2177 17.0024H66.7192C66.7873 16.7981 66.651 16.7299 66.3104 16.7299H64.5394C64.0626 16.7299 63.7901 16.7299 63.722 17.0024C63.6538 17.2068 63.7901 17.2068 64.1988 17.2749L66.7192 17.343C67.8772 17.343 68.1496 17.6155 67.8772 18.2966C67.6728 18.7054 67.4684 18.9097 66.9235 19.0459C66.651 19.1141 66.1061 19.1141 65.3568 19.1141H63.3133C61.7466 19.1141 61.2697 18.9778 61.5422 18.2966C61.5422 18.2966 61.6103 18.1604 61.6784 18.0923H63.177V18.0923ZM73.4628 16.8662C73.8715 16.8662 73.9396 17.0024 73.8715 17.2068C73.7353 17.4792 73.5309 17.6155 73.1222 17.6155H70.8062L71.1468 16.8662H73.4628ZM73.8715 16.1169H69.9888L68.6265 19.1141H70.1932L70.5337 18.3648H73.4628C74.6208 18.3648 75.0976 18.0242 75.5063 17.2749C75.7107 16.7299 75.7107 16.4575 75.2339 16.2531C74.8933 16.1169 74.4846 16.1169 73.8715 16.1169V16.1169ZM78.776 18.3648C77.8224 18.3648 77.4818 18.2967 77.6861 17.8198L77.8905 17.4111C78.0948 16.9343 78.5035 16.7981 79.5253 16.7981H80.5471C81.5007 16.7981 81.8413 16.8662 81.637 17.343L81.4326 17.7517C81.2282 18.2285 80.8195 18.2966 79.7978 18.2966H78.776V18.3648ZM78.0267 19.1141H79.8659C80.8195 19.1141 81.4326 19.1141 81.9094 18.9097C82.3862 18.7054 82.6587 18.4329 82.8631 18.0242L83.2718 17.2068C83.4761 16.7299 83.408 16.4575 83.1355 16.3212C82.795 16.1169 82.1819 16.1169 81.2282 16.1169H79.3891C78.4354 16.1169 77.8224 16.1169 77.3455 16.3212C76.8687 16.5256 76.5962 16.7981 76.3919 17.2749L76.0513 18.0923C75.8469 18.501 75.8469 18.7735 76.1875 18.9778C76.5281 19.1141 77.1412 19.1141 78.0267 19.1141V19.1141ZM88.585 16.8662C88.9937 16.8662 89.0618 17.0024 88.9937 17.2068C88.8574 17.4792 88.7212 17.6155 88.2444 17.6155H85.7921L86.1327 16.8662H88.585ZM88.9937 16.1169H84.9066L83.5443 19.1141H85.111L85.4515 18.3648H87.7676C88.2444 18.3648 88.4487 18.4329 88.3125 18.7054L88.1081 19.1141H89.6749L89.9473 18.501C90.0836 18.2285 89.8792 18.0242 89.4024 17.9561C90.0836 17.8879 90.4241 17.6155 90.6285 17.1386C90.9691 16.3212 90.4923 16.1169 88.9937 16.1169V16.1169ZM92.672 19.1141L93.6938 16.8662H91.5822L91.9227 16.1169H97.7128L97.3722 16.8662H95.2605L94.2387 19.1141H92.672ZM109.565 4.80933V4.94556H109.225V5.8311H109.088V4.94556H108.816V4.80933H109.565ZM110.519 5.8311L110.451 5.21804V4.94556C110.451 5.01368 110.383 5.14992 110.383 5.21804L110.178 5.76298H110.042L109.838 5.14992C109.838 5.0818 109.77 4.94556 109.77 4.87745V5.14992L109.701 5.76298H109.565L109.633 4.74121H109.838L110.042 5.28615C110.042 5.35427 110.11 5.42239 110.11 5.55862C110.11 5.49051 110.178 5.35427 110.178 5.28615L110.383 4.74121H110.587L110.655 5.76298H110.519V5.8311Z" fill="white"/>
</g>
</svg>
