<?xml version="1.0" standalone="no"?>
<!DOCTYPE svg PUBLIC "-//W3C//DTD SVG 20010904//EN"
 "http://www.w3.org/TR/2001/REC-SVG-20010904/DTD/svg10.dtd">
<svg version="1.0" xmlns="http://www.w3.org/2000/svg"
 width="190.000000pt" height="189.000000pt" viewBox="0 0 190.000000 189.000000"
 preserveAspectRatio="xMidYMid meet">

<g transform="translate(0.000000,189.000000) scale(0.100000,-0.100000)"
fill="#000000" stroke="none">
<path d="M716 1669 c-22 -5 -54 -24 -73 -42 -31 -30 -43 -57 -25 -57 4 0 8
-12 7 -27 0 -26 2 -28 40 -25 22 1 70 7 107 13 90 14 127 0 121 -45 -2 -17 3
-44 11 -61 8 -16 18 -43 22 -60 4 -19 8 -24 12 -15 2 8 13 25 24 37 17 18 20
32 16 92 -3 68 -5 73 -48 116 -68 69 -136 93 -214 74z"/>
<path d="M810 1433 c-48 -8 -51 -10 -38 -38 6 -14 15 -25 20 -25 5 0 7 4 4 8
-2 4 11 6 30 4 39 -5 45 9 12 27 -21 10 -20 11 12 6 33 -4 34 -4 16 10 -11 8
-22 14 -25 14 -3 -1 -17 -4 -31 -6z"/>
<path d="M640 1421 c0 -6 5 -11 11 -11 6 0 8 -7 5 -17 -4 -10 -4 -14 0 -11 3
4 13 1 21 -7 8 -8 18 -15 23 -15 15 0 21 33 8 46 -18 18 -68 29 -68 15z"/>
<path d="M919 1307 c-1 -15 -2 -30 -4 -34 -1 -5 -5 -25 -9 -46 -6 -28 -11 -35
-21 -27 -9 8 -14 3 -18 -20 -4 -16 -11 -30 -17 -30 -6 0 -9 4 -6 9 3 4 -16 1
-42 -8 -26 -9 -40 -17 -30 -19 10 -2 15 -9 11 -18 -8 -22 31 -17 53 7 10 12
29 25 42 30 29 11 55 72 54 128 -1 48 -11 70 -13 28z"/>
<path d="M740 1306 c0 -2 7 -7 16 -10 8 -3 12 -2 9 4 -6 10 -25 14 -25 6z"/>
<path d="M755 1250 l-50 -7 52 -1 c28 -1 55 3 58 8 3 6 3 9 -2 8 -4 0 -30 -4
-58 -8z"/>
<path d="M735 1220 c-3 -5 -1 -10 4 -10 6 0 11 5 11 10 0 6 -2 10 -4 10 -3 0
-8 -4 -11 -10z"/>
<path d="M926 1011 c-18 -35 -19 -41 -7 -41 11 0 36 59 28 66 -3 3 -13 -8 -21
-25z"/>
<path d="M900 950 c0 -5 5 -10 11 -10 5 0 7 5 4 10 -3 6 -8 10 -11 10 -2 0 -4
-4 -4 -10z"/>
<path d="M755 683 c-116 -5 -130 -9 -131 -41 -4 -106 -18 -284 -22 -269 -2 9
-7 15 -11 12 -7 -4 -6 -95 3 -172 2 -18 0 -31 -3 -29 -8 5 -13 -133 -5 -156 4
-15 18 -18 85 -18 85 0 83 -2 73 62 -5 27 -12 38 -30 42 -16 4 -24 14 -25 29
-1 24 -3 43 -14 102 -6 35 -3 43 19 64 35 33 90 25 159 -23 40 -27 62 -36 92
-35 40 1 134 26 104 28 -9 1 -23 9 -30 18 -12 14 -12 16 0 8 10 -5 12 -4 7 3
-4 7 -13 12 -20 12 -40 0 -108 135 -132 265 -14 79 -27 109 -44 103 -3 -1 -36
-3 -75 -5z m70 -51 c-6 -7 -34 11 -29 19 3 5 11 3 19 -4 7 -6 12 -13 10 -15z
m-118 -194 c-3 -8 -6 -5 -6 6 -1 11 2 17 5 13 3 -3 4 -12 1 -19z m10 -80 c-2
-13 -4 -3 -4 22 0 25 2 35 4 23 2 -13 2 -33 0 -45z"/>
<path d="M1223 508 c-13 -6 -23 -15 -23 -20 0 -14 16 -9 41 12 26 21 17 25
-18 8z"/>
<path d="M1280 384 c0 -2 5 -14 11 -27 8 -18 17 -23 35 -19 35 7 26 35 -14 43
-17 3 -32 5 -32 3z"/>
<path d="M970 120 c-47 -11 -104 -19 -127 -20 -46 0 -48 -3 -37 -59 l7 -31
163 0 c164 0 164 0 174 24 5 13 13 27 19 30 12 8 -4 43 -28 62 -21 16 -76 14
-171 -6z"/>
</g>
</svg>
