<svg width="120" height="27" viewBox="0 0 120 27" fill="none" xmlns="http://www.w3.org/2000/svg">
<g id="stars" filter="url(#filter0_d_109_348)">
<path id="Vector" d="M60.6655 1.00003L63.3382 6.41457L69.315 7.28816L64.9903 11.5004L66.0109 17.4512L60.6655 14.6402L55.3202 17.4512L56.3408 11.5004L52.0161 7.28816L57.9929 6.41457L60.6655 1.00003Z" fill="#FDCD03" stroke="#FDCD03" stroke-width="1.72988" stroke-linecap="round" stroke-linejoin="round"/>
<path id="Vector_2" d="M83.5376 1.00003L86.2103 6.41457L92.187 7.28816L87.8623 11.5004L88.8829 17.4512L83.5376 14.6402L78.1923 17.4512L79.2129 11.5004L74.8882 7.28816L80.8649 6.41457L83.5376 1.00003Z" fill="white" stroke="white" stroke-width="1.72988" stroke-linecap="round" stroke-linejoin="round"/>
<path id="Vector_3" d="M106.41 1.00003L109.082 6.41457L115.059 7.28816L110.734 11.5004L111.755 17.4512L106.41 14.6402L101.064 17.4512L102.085 11.5004L97.7603 7.28816L103.737 6.41457L106.41 1.00003Z" fill="white" stroke="white" stroke-width="1.72988" stroke-linecap="round" stroke-linejoin="round"/>
<path id="Vector_4" d="M13.6494 1L16.3221 6.41454L22.2988 7.28813L17.9741 11.5004L18.9948 17.4512L13.6494 14.6401L8.30408 17.4512L9.32471 11.5004L5 7.28813L10.9767 6.41454L13.6494 1Z" fill="#FDCD03" stroke="#FDCD03" stroke-width="1.72988" stroke-linecap="round" stroke-linejoin="round"/>
<path id="Vector_5" d="M36.981 1.45914L39.6536 6.87369L45.6304 7.74729L41.3057 11.9596L42.3263 17.9104L36.981 15.0993L31.6356 17.9104L32.6563 11.9596L28.3315 7.74729L34.3083 6.87369L36.981 1.45914Z" fill="#FDCD03" stroke="#FDCD03" stroke-width="1.72988" stroke-linecap="round" stroke-linejoin="round"/>
</g>
<defs>
<filter id="filter0_d_109_348" x="0.135254" y="0.135071" width="119.789" height="26.6403" filterUnits="userSpaceOnUse" color-interpolation-filters="sRGB">
<feFlood flood-opacity="0" result="BackgroundImageFix"/>
<feColorMatrix in="SourceAlpha" type="matrix" values="0 0 0 0 0 0 0 0 0 0 0 0 0 0 0 0 0 0 127 0" result="hardAlpha"/>
<feOffset dy="4"/>
<feGaussianBlur stdDeviation="2"/>
<feComposite in2="hardAlpha" operator="out"/>
<feColorMatrix type="matrix" values="0 0 0 0 0 0 0 0 0 0 0 0 0 0 0 0 0 0 0.25 0"/>
<feBlend mode="normal" in2="BackgroundImageFix" result="effect1_dropShadow_109_348"/>
<feBlend mode="normal" in="SourceGraphic" in2="effect1_dropShadow_109_348" result="shape"/>
</filter>
</defs>
</svg>
