<svg width="16" height="15" viewBox="0 0 16 15" fill="none" xmlns="http://www.w3.org/2000/svg">
<g id="twitter 1">
<path id="Vector" d="M13.1503 5.08866C13.1587 5.19555 13.1587 5.30247 13.1587 5.40937C13.1587 8.66986 10.4233 12.4267 5.42385 12.4267C3.8836 12.4267 2.45279 12.022 1.24921 11.3195C1.46805 11.3424 1.67844 11.3501 1.9057 11.3501C3.17659 11.3501 4.34652 10.9606 5.28077 10.2963C4.0856 10.2734 3.08402 9.56328 2.73894 8.58588C2.90728 8.60878 3.0756 8.62405 3.25237 8.62405C3.49644 8.62405 3.74054 8.5935 3.96778 8.54007C2.72212 8.31098 1.78785 7.31833 1.78785 6.1195V6.08897C2.14975 6.27223 2.57062 6.38677 3.01666 6.40202C2.28442 5.95913 1.80469 5.20319 1.80469 4.34797C1.80469 3.88983 1.93933 3.46986 2.17501 3.10334C3.51326 4.59996 5.52484 5.57733 7.78047 5.68425C7.7384 5.50099 7.71314 5.31011 7.71314 5.11921C7.71314 3.76002 8.92514 2.65283 10.4317 2.65283C11.2144 2.65283 11.9214 2.95063 12.418 3.43169C13.0324 3.32479 13.6216 3.11861 14.1434 2.83609C13.9414 3.40879 13.5122 3.88985 12.9483 4.19527C13.4954 4.14184 14.0256 4.00437 14.5138 3.81349C14.1435 4.30216 13.6806 4.73739 13.1503 5.08866Z" fill="white"/>
</g>
</svg>
