<svg width="124" height="16" viewBox="0 0 124 16" fill="none" xmlns="http://www.w3.org/2000/svg">
<path id="Vector" opacity="0.3" fill-rule="evenodd" clip-rule="evenodd" d="M14.0752 15.1125L18.1686 0.304109H22.9564L18.863 15.1125H14.0752ZM77.7587 4.72637L79.6093 3.2505H75.2856L76.097 0.303345H85.9425L85.0945 3.2505H82.5059L79.2246 15.1125H74.4361L76.8464 6.39036C77.0223 5.69295 77.2387 5.13548 77.7587 4.72637V4.72637ZM106.772 0.87075L102.836 15.1125H107.623L110.713 3.87067C111.33 1.46721 110.172 0.303345 108.472 0.303345H100.286L96.1933 15.1125H100.982L104.023 4.02361C104.36 2.91632 104.612 2.63033 104.954 2.31451L106.44 0.782811C106.56 0.711694 106.828 0.662751 106.772 0.87075V0.87075ZM55.7108 7.22235L56.682 6.65036C56.9091 6.48747 57.5844 6.13954 58.4729 6.11889H60.6745L59.8632 8.98804H54.9584L54.3413 11.1598C54.186 11.741 54.612 12.1677 55.0746 12.1677H59.0128L58.2015 15.1133H52.6413C50.0926 15.1133 49.0503 12.9041 49.5137 11.354L51.7145 3.25126C52.4096 0.53734 54.7267 0.304109 56.5023 0.304109H62.2941L61.4828 3.25126H57.5071C56.7722 3.25126 56.3868 3.7552 56.3096 4.06491L55.4669 7.00747C55.4019 7.16577 55.4195 7.37453 55.7108 7.22235V7.22235ZM45.7911 0.87075L44.6311 5.04372L49.4319 5.03607L49.6552 4.22014C50.582 0.808807 47.8023 0.304109 46.7593 0.304109H43.1292C41.3528 0.304109 39.0358 0.53734 38.3414 3.25126L36.1406 11.354C35.5617 13.2535 36.7195 15.1133 39.2683 15.1133H46.6438L48.8637 7.09465H44.0736L42.6658 12.1684H41.6625C41.2381 12.1684 40.774 11.741 41.0064 11.1216L42.9312 4.02514C43.0719 3.58085 43.3173 2.76032 43.861 2.33668L45.421 0.804987C45.5044 0.711693 45.847 0.662751 45.7911 0.87075V0.87075ZM11.1128 0.874571L7.16613 15.1133H11.9929C11.9929 15.1133 12.714 12.3573 13.2669 10.5014C13.7693 8.81523 11.8966 7.86547 11.6649 7.86547C11.4324 7.86547 11.4324 7.516 11.6649 7.516C12.9771 7.477 14.2908 7.24453 15.1205 4.1819C16.0971 0.579401 12.9312 0.304873 11.7612 0.304873H4.50192L0.370239 15.1141H5.19703L8.2543 4.02896C8.49289 3.15873 8.84618 2.59285 9.20406 2.33056L10.7732 0.804987C10.8535 0.711693 11.1602 0.687985 11.1128 0.874571V0.874571ZM116.965 7.22235L117.936 6.65036C118.163 6.48747 118.84 6.13954 119.727 6.11889H121.929L121.117 8.98804H116.214L115.595 11.1598C115.442 11.741 115.866 12.1677 116.329 12.1677H120.267L119.456 15.1133H113.896C111.347 15.1133 110.304 12.9041 110.767 11.354L112.969 3.25126C113.663 0.53734 115.981 0.304109 117.757 0.304109H123.549L122.738 3.25126H118.76C118.027 3.25126 117.64 3.7552 117.564 4.06491L116.722 7.00747C116.657 7.16577 116.674 7.37453 116.965 7.22235V7.22235ZM32.4884 0.304109H25.4991L21.3681 15.1133H28.164C31.5616 15.1133 33.2608 13.951 33.8404 11.78L35.886 4.41437C36.8136 1.00228 33.5307 0.304109 32.4884 0.304109ZM32.1053 0.867693L29.3279 10.7683C28.8263 12.3963 27.5913 12.1646 27.0116 12.1646L29.2423 4.01979C29.5038 3.18397 29.8112 2.6265 30.1844 2.32445L31.7352 0.800395C31.8575 0.687984 32.1986 0.678047 32.1053 0.867693ZM93.6981 0.304109H90.7242C88.9486 0.304109 86.6315 0.53734 85.9372 3.25126L83.7356 11.354C83.1559 13.2535 84.3152 15.1133 86.8632 15.1133H89.3737C92.7713 15.1133 94.4697 13.951 95.0493 11.78L97.0957 4.41437C98.0233 1.00228 94.7404 0.304109 93.6981 0.304109V0.304109ZM93.2768 0.863101L90.3808 11.351C90.1881 12.0094 89.6475 12.3573 89.2216 12.3573C88.7971 12.3573 88.2955 12.0484 88.5272 11.4267L90.53 4.02132C90.8527 2.9538 91.1333 2.60739 91.456 2.31068L92.9418 0.778984C93.045 0.687985 93.3158 0.707867 93.2768 0.863101V0.863101Z" fill="white"/>
</svg>
